<?xml version="1.0" encoding="UTF-8"?><svg id="_レイヤー_2" xmlns="http://www.w3.org/2000/svg" viewBox="0 0 375.19 189.52"><defs><style>.cls-1{fill:#dedede;}.cls-1,.cls-2,.cls-3,.cls-4,.cls-5,.cls-6,.cls-7,.cls-8,.cls-9,.cls-10,.cls-11,.cls-12,.cls-13,.cls-14,.cls-15{stroke-width:0px;}.cls-2,.cls-5{fill:#e5bfd3;}.cls-3,.cls-9{fill:#ff6580;}.cls-4{fill:#ffb2b2;}.cls-5,.cls-8,.cls-9,.cls-10{isolation:isolate;}.cls-5,.cls-9,.cls-10{opacity:.74;}.cls-6{fill:#e0e0e0;}.cls-7,.cls-10{fill:#3f3d56;}.cls-8{fill:#000;opacity:.21;}.cls-16{fill:none;stroke:#2d3487;stroke-miterlimit:10;stroke-width:.49px;}.cls-11{fill:#2f2e41;}.cls-12{fill:#c6c6c6;}.cls-13{fill:#ececec;}.cls-14{fill:#fff;}.cls-15{fill:#fff9f2;}</style></defs><g id="_デザイン"><circle class="cls-15" cx="187.54" cy="94.77" r="92.5"/><path class="cls-13" d="M246.84,64.54c-1.34-2.42-2.83-4.76-4.46-6.99-1.14-1.57-2.34-3.09-3.61-4.55h0c-2.3-2.65-4.79-5.13-7.47-7.4-.55-.47-1.1-.92-1.67-1.37-5.08-4.04-10.71-7.33-16.72-9.77l.05,8.79.58,100.17h-49.87l-2.8-99.98.21-8.65c-24.45,10.28-41.62,34.46-41.62,62.65,0,5.82.74,11.61,2.21,17.24.62,2.38,1.37,4.72,2.25,7.02.32.83.65,1.66,1.01,2.48.17.4.34.79.52,1.19.23.51.47,1.03.72,1.53.19.4.39.79.59,1.19.26.52.53,1.03.8,1.54.21.4.43.79.65,1.19,3.59,6.34,8.17,12.07,13.57,16.97,1.54,1.4,3.14,2.72,4.8,3.97,24.18,18.17,57.46,18.17,81.64,0,.91-.68,1.79-1.38,2.66-2.11.58-.48,1.14-.97,1.7-1.47.15-.13.3-.26.44-.4,4.98-4.51,9.26-9.74,12.71-15.5,1.27-2.11,2.42-4.3,3.44-6.54.27-.59.53-1.19.79-1.79,1.17-2.76,2.16-5.59,2.95-8.48.12-.45.24-.89.35-1.34h0c.02-.08.04-.16.06-.24.12-.47.23-.95.34-1.43h0c.35-1.54.64-3.09.88-4.66.03-.2.06-.4.09-.61.01-.07.02-.15.03-.22h0c.17-1.22.31-2.44.42-3.67.17-1.94.25-3.89.25-5.87.02-11.51-2.9-22.83-8.48-32.9Z"/><path class="cls-6" d="M240.17,138.45c4.02-5.43,5.57-13.09,2.44-19.08-2.93,6.74-8.16,12.23-14.75,15.49-2.55,1.25-5.51,2.37-6.69,4.95-.73,1.6-.59,3.5,0,5.16.59,1.66,1.59,3.14,2.58,4.6l.05.44c6.24-2.59,12.34-6.12,16.36-11.56Z"/><path class="cls-14" d="M242.48,119.42c-.18,5.59-2.12,10.99-5.54,15.41-.72.97-1.59,1.81-2.57,2.51-.98.65-2.11,1.02-3.29,1.08-1.09.08-2.22.03-3.27.37-1.09.37-1.96,1.19-2.41,2.24-.58,1.29-.67,2.71-.71,4.1-.04,1.55-.06,3.15-.79,4.56-.09.17.18.3.27.13,1.27-2.45.44-5.31,1.2-7.88.35-1.2,1.07-2.3,2.27-2.78,1.05-.42,2.21-.37,3.32-.44,1.14-.04,2.26-.36,3.25-.94,1.02-.64,1.91-1.46,2.66-2.4,1.71-2.1,3.07-4.46,4.05-6.98,1.13-2.88,1.76-5.93,1.86-9.01,0-.19-.29-.16-.3.03Z"/><path class="cls-14" d="M238.12,133.47c1.7.98,3.85.58,5.09-.93.12-.15-.1-.34-.23-.19-1.15,1.41-3.16,1.78-4.73.86-.17-.1-.29.17-.13.27h0Z"/><path class="cls-14" d="M231.64,138.46c-.52-1.87-.32-3.86.57-5.58.09-.17-.18-.3-.27-.13-.92,1.79-1.12,3.87-.58,5.81.05.18.33.08.28-.1Z"/><path class="cls-14" d="M241.65,125.54c-.72-.24-1.28-.82-1.48-1.56-.05-.19-.33-.08-.28.1.22.81.83,1.46,1.63,1.73.07.03.16,0,.2-.07.03-.07,0-.16-.07-.2h0Z"/><path class="cls-6" d="M220.23,114.6c.03.12.06.23.08.35.36,1.57.6,3.17.71,4.78.01.12.02.25.03.37.21,3.88-.29,7.76-1.5,11.46-.48,1.47-1.07,2.9-1.77,4.28-.96,1.91-2.16,3.89-2.43,5.95-.03.21-.05.43-.05.65l7.98,7.6s.05.02.08.03l.3.32c.04-.07.08-.14.12-.21.02-.04.05-.08.07-.12.02-.03.03-.05.05-.08,0,0,.01-.02.01-.03.02-.02.03-.05.04-.07.23-.4.46-.81.68-1.21t0,0c1.71-3.1,3.17-6.38,4.1-9.77.03-.1.06-.21.08-.31.41-1.53.69-3.09.84-4.67.08-.86.12-1.73.11-2.6-.02-2.24-.4-4.47-1.11-6.59-1.42-4.24-4.19-7.97-8.13-9.96-.1-.05-.2-.1-.3-.15Z"/><path class="cls-14" d="M220.15,114.72c3.22,4.57,4.92,10.05,4.86,15.64,0,1.2-.17,2.4-.54,3.55-.39,1.11-1.07,2.09-1.97,2.84-.82.72-1.75,1.36-2.39,2.27-.64.95-.85,2.13-.57,3.24.31,1.38,1.1,2.57,1.91,3.7.9,1.26,1.85,2.55,2.12,4.11.03.19.32.13.29-.06-.46-2.72-2.84-4.5-3.78-7.01-.44-1.17-.53-2.48.14-3.59.58-.97,1.54-1.63,2.38-2.35.89-.72,1.59-1.65,2.03-2.71.42-1.13.65-2.31.68-3.52.1-2.71-.23-5.41-.98-8.01-.83-2.98-2.17-5.79-3.95-8.31-.11-.16-.33.04-.22.2h0Z"/><path class="cls-14" d="M225.13,128.56c1.94-.24,3.42-1.85,3.5-3.81,0-.19-.29-.21-.3-.02-.07,1.82-1.45,3.32-3.26,3.54-.19.02-.13.31.06.29h0Z"/><path class="cls-14" d="M222.96,136.45c-1.54-1.18-2.58-2.89-2.91-4.8-.03-.19-.32-.13-.29.06.35,1.98,1.43,3.77,3.04,4.99.15.12.32-.13.16-.25h0Z"/><path class="cls-14" d="M223.18,120.11c-.72.25-1.51.11-2.12-.35-.15-.12-.31.13-.16.25.67.51,1.54.66,2.34.4.08-.02.13-.1.12-.18-.02-.08-.1-.13-.18-.12h0Z"/><path class="cls-6" d="M115.18,108.02c-3.57-5.74-4.49-13.5-.88-19.21,2.38,6.96,7.14,12.85,13.44,16.63,2.44,1.45,5.3,2.81,6.26,5.48.6,1.66.31,3.54-.42,5.14-.72,1.61-1.84,3-2.95,4.38l-.09.43c-6.01-3.09-11.8-7.1-15.37-12.85Z"/><path class="cls-14" d="M114.43,88.86c-.27,5.59,1.22,11.12,4.27,15.81.64,1.02,1.43,1.94,2.36,2.71.92.72,2.02,1.19,3.19,1.34,1.08.17,2.21.21,3.23.64,1.05.46,1.86,1.34,2.22,2.43.48,1.33.45,2.75.37,4.15-.09,1.54-.2,3.15.41,4.61.07.18-.2.28-.28.11-1.07-2.54-.01-5.32-.56-7.95-.25-1.22-.88-2.38-2.03-2.96-1.01-.5-2.17-.55-3.27-.71-1.14-.14-2.22-.55-3.17-1.2-.96-.72-1.79-1.61-2.45-2.61-1.53-2.23-2.7-4.69-3.46-7.29-.89-2.96-1.27-6.05-1.12-9.13,0-.19.3-.14.29.05h0Z"/><path class="cls-14" d="M117.63,103.22c-1.77.84-3.88.27-4.99-1.34-.11-.16.13-.33.24-.18,1.03,1.5,3,2.03,4.65,1.24.17-.08.28.2.11.28h0Z"/><path class="cls-14" d="M123.68,108.72c.67-1.82.63-3.82-.11-5.61-.07-.18.21-.28.28-.11.77,1.86.81,3.95.1,5.84-.07.18-.34.06-.27-.12h0Z"/><path class="cls-14" d="M114.76,95.03c.74-.18,1.34-.72,1.6-1.43.06-.18.34-.06.27.12-.29.79-.95,1.38-1.76,1.59-.08.03-.16-.01-.19-.09-.03-.08.01-.16.09-.19Z"/><path class="cls-6" d="M137,85.87c-.04.11-.07.23-.11.34-.49,1.54-.86,3.11-1.09,4.7-.02.12-.04.25-.06.37-.53,3.85-.34,7.76.56,11.54.36,1.5.83,2.98,1.42,4.41.81,1.98,1.84,4.06,1.94,6.12.01.22.01.43,0,.65l-8.57,6.93s-.05.01-.08.02l-.33.29c-.04-.07-.07-.15-.11-.22-.02-.04-.04-.08-.06-.13-.01-.03-.03-.06-.04-.08,0,0,0-.02-.01-.03-.01-.02-.02-.05-.04-.07-.2-.42-.39-.84-.58-1.27t0,0c-1.45-3.23-2.65-6.62-3.29-10.07-.02-.1-.04-.21-.06-.32-.28-1.56-.43-3.14-.46-4.72-.01-.87.02-1.74.1-2.6.2-2.23.76-4.42,1.64-6.48,1.76-4.11,4.82-7.61,8.91-9.27.1-.04.21-.08.31-.12Z"/><path class="cls-14" d="M137.07,85.99c-3.58,4.3-5.72,9.61-6.11,15.19-.11,1.2-.02,2.41.25,3.58.3,1.13.9,2.17,1.74,2.99.76.78,1.64,1.5,2.2,2.46.56,1,.68,2.19.31,3.28-.42,1.35-1.3,2.47-2.2,3.53-1,1.18-2.05,2.39-2.44,3.93-.05.19-.33.1-.29-.08.68-2.67,3.2-4.26,4.34-6.68.53-1.13.73-2.43.16-3.58-.5-1.01-1.4-1.75-2.18-2.54-.83-.79-1.45-1.78-1.81-2.86-.33-1.16-.46-2.36-.39-3.56.12-2.7.67-5.37,1.62-7.91,1.07-2.9,2.63-5.59,4.61-7.97.12-.15.33.07.2.22h0Z"/><path class="cls-14" d="M130.98,99.39c-1.92-.4-3.26-2.13-3.18-4.08,0-.08.07-.15.16-.14.08,0,.14.07.14.15-.08,1.82,1.18,3.43,2.96,3.79.19.04.1.32-.08.29h0Z"/><path class="cls-14" d="M132.5,107.42c1.63-1.05,2.8-2.67,3.29-4.55.05-.19.33-.1.29.08-.51,1.95-1.73,3.64-3.43,4.72-.16.1-.3-.16-.14-.26h0Z"/><path class="cls-14" d="M133.61,91.12c.7.3,1.5.24,2.14-.18.16-.11.3.16.14.26-.71.46-1.59.53-2.36.2-.08-.03-.12-.11-.1-.18.02-.08.11-.12.18-.1Z"/><circle class="cls-3" cx="181.39" cy="39.96" r="9.44"/><path class="cls-6" d="M210.29,39.47c-.85-.9-1.75-1.75-2.69-2.55-1.84-1.56-3.87-2.89-6.14-3.72-.85-.32-1.74-.55-2.64-.69-.11-.02-.21-.03-.32-.05,0,0-.02,0-.02,0-.02,0-.03,0-.05,0-.22-.03-.44-.05-.66-.07-1.2-.08-2.4.03-3.56.32-.68.17-1.33.4-1.97.69-.64.31-1.25.66-1.85,1.05-.32.19-.65.37-.98.53-.98.47-2.02.8-3.1.99-.72.13-1.46.2-2.19.22-.64.01-1.24.03-1.85.27-1.31.49-2.31,1.57-2.69,2.92-.03.12.02.25.13.31.16.12.32.25.5.36.15.07.32.11.48.13.27.06.55.11.82.17,1.01.2,2.02.38,3.04.53,2.05.31,4.1.53,6.17.65.01,0,.03,0,.04,0,2.34.14,4.68.16,7.02.07.35-.01.71-.03,1.06-.05,1.48-.08,2.95-.21,4.41-.39,1.36-.17,2.71-.37,4.06-.61.96-.17,1.92-.37,2.88-.58.15-.04.23-.2.19-.35-.01-.04-.04-.08-.07-.12Z"/><path class="cls-6" d="M190.67,52.06c-1.37-1.46-2.87-2.79-4.5-3.96-.54-.38-1.09-.73-1.66-1.06-.7-.4-1.42-.76-2.17-1.06-.17-.07-.34-.13-.5-.2-.96-.35-1.95-.6-2.96-.74,0,0-.02,0-.02,0-.02,0-.03,0-.05,0-.49-.06-.98-.09-1.48-.09-.35,0-.71.02-1.06.05-.57.06-1.13.15-1.69.29-.27.07-.55.15-.82.24-.39.13-.78.28-1.15.45,0,0-.01,0-.02,0-.63.31-1.24.66-1.83,1.04-.01,0-.03.02-.04.02-.67.4-1.37.73-2.11.99-.63.22-1.28.39-1.93.51-.72.13-1.46.2-2.19.21-.64.01-1.24.03-1.84.27-1.31.49-2.31,1.57-2.7,2.92-.03.12.02.25.13.31.16.12.32.25.5.35.15.07.32.11.48.13.27.06.55.11.82.17,1.01.2,2.02.38,3.04.53,1.4.21,2.8.38,4.2.51.67.06,1.33.11,2,.15,1.71.1,3.43.14,5.14.12.35,0,.71-.01,1.06-.02,2.1-.06,4.2-.22,6.29-.47,2.33-.28,4.64-.68,6.93-1.2.15-.04.23-.2.19-.35-.01-.04-.04-.08-.07-.12Z"/><path class="cls-12" d="M167.14,26.72l8.32,114.91-16.63,1.48V28.19c1.98-1.55,4.83-1.79,8.32-1.46Z"/><path class="cls-12" d="M208.19,26.72l-8.32,114.91,16.63,1.48V28.19c-1.98-1.55-4.83-1.79-8.32-1.46Z"/><path class="cls-12" d="M216.9,28.24c-.52-1.27-1.61-2.14-2.88-2.14h-52.87c-1.76,0-3.2,1.69-3.2,3.78v114.22c-.02,1.06.38,2.08,1.1,2.85.38.4.86.68,1.38.83.23.06.47.1.71.1h52.87c.24,0,.48-.03.71-.1,1.42-.38,2.49-1.89,2.49-3.68V29.87c0-.56-.11-1.12-.32-1.64ZM216.15,144.09c0,1.39-.96,2.52-2.14,2.52h-52.87c-.98,0-1.8-.78-2.06-1.84-.05-.22-.08-.45-.08-.69V29.87c0-1.39.96-2.52,2.14-2.52h52.87c.22,0,.43.04.64.11.87.32,1.5,1.28,1.5,2.41v114.22Z"/><rect class="cls-12" x="158.47" y="60.81" width="58.21" height="1.06"/><rect class="cls-12" x="158.47" y="38.9" width="58.21" height="1.06"/><rect class="cls-12" x="158.47" y="78.51" width="58.21" height="1.06"/><rect class="cls-12" x="176.3" y="26.57" width="1.06" height="66.97"/><rect class="cls-12" x="197.79" y="26.57" width="1.06" height="66.97"/><path class="cls-12" d="M223.32,141.23h-69.71c-2.64,0-4.77,2.14-4.78,4.78,0,.61.12,1.21.34,1.78.73,1.81,2.48,3,4.43,3h69.71c1.7,0,3.27-.9,4.12-2.37.12-.2.22-.42.31-.64.23-.56.35-1.17.34-1.78,0-2.64-2.14-4.77-4.78-4.78Z"/><rect class="cls-12" x="158.83" y="91.07" width="57.86" height="3.54"/><path class="cls-12" d="M187.22,90.01h1.06c1.07,0,1.95.87,1.95,1.95h-4.95c0-1.07.87-1.95,1.95-1.95h0Z"/><circle id="b6ad44ff-295b-418b-9346-03b76e49c34f" class="cls-4" cx="188.78" cy="90.08" r="10.96"/><path id="e8f77054-5a04-4fda-83df-6cd2e0c3cac3-600" class="cls-11" d="M176.54,79.54c.08-1.26.92-2.55,3.56-3.22,0,0,4.54-5.81,10.71-2.76,0,0,2.99-.51,5.21,2.59,0,0,2.2-1.3,3.13,1,0,0,2.58,4.69,1.63,9.47s-1.44,5.38-1.44,5.38c0,0,1.21-9.89-5.76-9.21-6.97.69-12.58-1.77-14.16,3.6-1.31,4.46-1.15,6.77-1.15,6.77,0,0-4.38-4.45-2.89-7.95.76-1.79,1.03-3.74,1.16-5.68Z"/><path class="cls-2" d="M158.96,150.01h60.65c-.41-4.63-.67-22.31-.67-23.47,0-5.13-4.2-10.74-4.2-10.74l-1.5-.83-12.56-3.92-3.25-4.22c-.69-.9-1.76-1.42-2.89-1.41l-10.26.08c-.9,0-1.77.35-2.43.96l-6.36,5.9-9.32,4.45-.02-.02-.1.07-1.38,1-.89.64s-2.33,2.8-4.2,11.2c-.28,1.26-.48,17.62-.61,20.3Z"/><path class="cls-12" d="M233.64,147.78c-.15.13-.29.27-.44.4-.56.5-1.13.99-1.7,1.47-.87.72-1.76,1.43-2.66,2.11h-81.64c-1.66-1.25-3.26-2.57-4.8-3.97h91.25Z"/><polygon class="cls-11" points="203.72 148.74 173.7 148.74 174.34 145.72 203.08 145.72 203.72 148.74"/><path class="cls-7" d="M230.87,135.71h-7.81c-.36,0-.7.16-.93.43-.11-.02-.22-.03-.33-.03-1.02,0-1.85.83-1.85,1.85s.83,1.85,1.85,1.85h0c.28,0,.56-.06.81-.19l.13,1.6.52,6.33c.02.08.06.16.1.23.21.39.62.64,1.07.64h5.08c.45,0,.86-.24,1.07-.64.04-.07.07-.15.1-.23l1.37-10.26c.2-.64-.16-1.33-.81-1.53-.12-.04-.24-.05-.36-.05ZM221.8,139.29c-.73,0-1.32-.59-1.32-1.32,0-.73.59-1.32,1.32-1.32.02,0,.05,0,.07,0-.05.21-.05.44.02.65l.56,1.82c-.2.11-.42.18-.65.18h0Z"/><path class="cls-7" d="M213.23,102.14h-49.44c-.88,0-1.6.72-1.6,1.6v33.36c0,.88.72,1.6,1.6,1.6h49.44c.88,0,1.6-.72,1.6-1.6v-33.36c0-.88-.72-1.6-1.6-1.6Z"/><path class="cls-11" d="M194.08,128.87h-11.57c-.34,0-.62.28-.62.62v18.27h12.8v-18.27c0-.34-.28-.62-.62-.62h0ZM188.34,139.25c-.75,0-1.36-.61-1.37-1.37v-2.11c0-.75.61-1.37,1.37-1.37s1.37.61,1.37,1.37v2.11c0,.75-.61,1.36-1.37,1.37h0Z"/><path class="cls-7" d="M181.86,147.17v1.76c0,.19.15.34.34.34h12.19c.19,0,.34-.15.34-.34v-1.76h-12.88Z"/><circle class="cls-11" cx="212.18" cy="135.97" r=".78"/><path class="cls-11" d="M170.03,134.84c-.15,0-.27.12-.27.27h0v1.41c0,.15.12.27.27.27.15,0,.27-.12.27-.27v-1.41c0-.15-.12-.27-.27-.27h0Z"/><path class="cls-11" d="M171.52,134.84c-.15,0-.27.12-.27.27h0v1.41c0,.15.12.27.27.27.15,0,.27-.12.27-.27v-1.41c0-.15-.12-.27-.27-.27h0Z"/><path class="cls-11" d="M173,134.84c-.15,0-.27.12-.27.27h0v1.41c0,.15.12.27.27.27.15,0,.27-.12.27-.27v-1.41c0-.15-.12-.27-.27-.27h0Z"/><path class="cls-11" d="M174.48,134.84c-.15,0-.27.12-.27.27h0v1.41c0,.15.12.27.27.27.15,0,.27-.12.27-.27v-1.41c0-.15-.12-.27-.27-.27h0Z"/><circle class="cls-4" cx="175.67" cy="143.81" r="4.13"/><circle class="cls-4" cx="204.51" cy="144.61" r="4.13"/><path class="cls-7" d="M247.13,94.77c-.41-.67-.89-1.4-1.65-1.62-.88-.26-1.78.25-2.54.75-2.28,1.5-4.49,3.12-6.59,4.86v.03c1.64-.11,3,4.25,4.64,4.13,1.18-.08,2.69-4.65,3.74-5.21.4-.21.78-.5,1.23-.52.56-.02,1.05.37,1.43.77,2.27,2.41,2.92,6.1,5.47,8.23-1.6-3.95-3.52-7.78-5.73-11.43Z"/><path class="cls-7" d="M251.49,100.63c1.2,2.16,2.46,4.28,3.8,6.35h0c0,.07-.02.15-.03.22-.16-.25-.32-.5-.48-.75-1.2-1.89-2.35-3.81-3.43-5.77-.51-.93-1.02-1.87-1.51-2.82-.38-.73-.75-1.47-1.11-2.21-.1-.21-.2-.43-.3-.64-.24-.5-.47-1.01-.71-1.5-.28-.57-.63-1.16-1.15-1.54-.24-.18-.52-.29-.81-.31-.42,0-.82.12-1.18.34-2.69,1.41-5.19,3.14-7.47,5.15-2.28,2-4.31,4.26-6.07,6.73-.05.08-.18,0-.13-.07.21-.3.43-.6.65-.89,2.76-3.66,6.13-6.81,9.98-9.31.65-.42,1.31-.82,1.98-1.2.34-.19.68-.38,1.02-.56.33-.19.7-.31,1.09-.34,1.32-.02,2,1.47,2.47,2.48.15.32.29.63.45.95.57,1.19,1.16,2.37,1.78,3.54.38.72.76,1.44,1.16,2.15Z"/><path class="cls-7" d="M236.98,96.41c-.08-.09-.15-.17-.23-.26-.61-.67-1.26-1.34-2.09-1.72-.4-.19-.83-.29-1.27-.3-.45.01-.9.11-1.32.29-.2.08-.39.17-.59.27-.22.11-.43.23-.65.35-.4.22-.8.45-1.19.7-.78.48-1.53,1-2.26,1.55-.38.29-.75.58-1.11.89-.34.28-.67.58-.99.88-.07.06-.17-.04-.1-.1.09-.08.17-.16.26-.24.24-.22.49-.44.74-.65.46-.39.93-.76,1.41-1.12.75-.56,1.53-1.07,2.33-1.55.4-.24.81-.47,1.22-.69.12-.07.25-.13.38-.19.29-.15.59-.27.9-.37.44-.14.9-.19,1.36-.13.44.06.86.21,1.25.43.82.46,1.45,1.17,2.07,1.86.06.07-.04.17-.1.1Z"/><path class="cls-7" d="M230.98,99.65c-.21.01-.41-.05-.59-.17-.45-.34-.44-1.17.04-2.52.26-.74.82-1.34,1.54-1.66.68-.3,1.45-.31,2.12-.01.06.03.12.05.17.08h0c.39.22.75.48,1.09.77.28.25.59.47.91.67l.11.06-.1.07c-2.57,1.81-4.32,2.7-5.29,2.7Z"/><path class="cls-7" d="M240.88,88.87c-1.74,0-3.25-1.23-3.58-2.94-1.98.4-3.26,2.33-2.85,4.3s2.33,3.26,4.3,2.85c1.97-.4,3.25-2.31,2.86-4.29-.24.05-.48.07-.72.07Z"/><circle class="cls-10" cx="143.11" cy="89.29" r="5.45"/><circle class="cls-5" cx="148.56" cy="89.29" r="5.45"/><circle class="cls-9" cx="145.88" cy="84.95" r="5.45"/><rect class="cls-7" x="145.84" y="85.58" width="14.67" height=".32" transform="translate(-18.66 49.85) rotate(-17.44)"/><circle class="cls-7" cx="160.22" cy="83.49" r=".64"/><path class="cls-7" d="M251.1,112.07c.93.66,1.82,1.32,2.85,1.83-.02.08-.04.16-.06.24-.13-.06-.25-.12-.37-.18-1.04-.54-1.93-1.28-2.9-1.92-.48-.33-1.01-.6-1.57-.78-.58-.17-1.19-.25-1.79-.21-2.52.12-4.68,1.63-7.02,2.39-1.15.37-2.37.57-3.56.34-1.2-.23-2.26-.87-3.31-1.44-1.04-.57-2.18-1.14-3.39-1.14-.99,0-2.03.4-2.56,1.28-.03.06-.11.07-.16.04-.05-.03-.07-.1-.04-.16.12-.2.26-.38.43-.54.69-.66,1.71-.91,2.65-.84,1.21.1,2.31.67,3.36,1.24,1.11.61,2.25,1.27,3.53,1.4,1.27.13,2.52-.2,3.7-.64,2.28-.87,4.52-2.31,7.05-2.15,1.19.08,2.22.59,3.18,1.27Z"/><path class="cls-2" d="M151.5,66.15v.32c-.11-.02-.22-.03-.32-.03h-1.66v3.57c0,1.1-.89,1.99-1.99,1.99h-2.45v.55c0,.22.04.44.13.64h-.34c-.07-.21-.11-.42-.11-.64v-.55h-1.35v-.32h1.35v-3.57c0-1.1.89-1.99,1.99-1.99h2.45v-.56h.32v.56h1.66c.11,0,.22,0,.32.03Z"/><path class="cls-7" d="M147.53,63.58h-4.43c-1.1,0-1.99.89-1.99,1.99v4.43c0,1.1.89,1.99,1.99,1.99h4.43c1.1,0,1.99-.89,1.99-1.99v-4.44c0-1.1-.89-1.98-1.99-1.98ZM149.2,70c0,.92-.75,1.67-1.67,1.67h-4.43c-.92,0-1.67-.75-1.67-1.67v-4.43c0-.92.75-1.67,1.67-1.67h4.43c.92,0,1.67.75,1.67,1.67v4.44Z"/><path class="cls-7" d="M144.75,71.68v.32h.32v-.32h-.32ZM144.75,71.68v.32h.32v-.32h-.32ZM151.5,66.15c-.11-.02-.22-.03-.32-.03h-4.43c-1.1,0-1.99.89-1.99,1.99v4.43c0,.22.04.44.11.64.27.81,1.03,1.35,1.88,1.35h4.43c1.1,0,1.99-.89,1.99-1.99v-4.43c0-.97-.71-1.81-1.67-1.96ZM152.85,72.54c0,.92-.75,1.67-1.67,1.67h-4.43c-.92,0-1.67-.75-1.67-1.67v-4.43c0-.92.75-1.67,1.67-1.67h4.43c.92,0,1.67.75,1.67,1.67v4.43ZM144.75,71.68v.32h.32v-.32h-.32Z"/><path class="cls-2" d="M141.62,113.07h-18.83c-.27,0-.49.22-.5.49v1.12c.62,2.38,1.37,4.72,2.25,7.02h17.08c.27,0,.49-.22.49-.49h0v-7.64c0-.27-.22-.49-.49-.49Z"/><path class="cls-1" d="M139.82,124.18h-14.28c.17.4.34.79.52,1.19h13.75c.77.01.77-1.2,0-1.19Z"/><path class="cls-1" d="M139.82,126.9h-13.04c.19.4.39.79.59,1.19h12.45c.77.01.77-1.2,0-1.19Z"/><path class="cls-1" d="M139.82,129.63h-11.65c.21.4.43.79.65,1.19h10.99c.77.01.77-1.2,0-1.19Z"/><path class="cls-7" d="M237.46,56.43h-.09c.28,0,.56.07.81.19h-.41c-.92,0-1.67.75-1.67,1.67v4.43c0,.92.75,1.67,1.67,1.67h.26c-.21.08-.44.13-.66.13h.09c1.01,0,1.83-.82,1.83-1.83v-4.43c0-1.01-.82-1.83-1.83-1.83Z"/><path class="cls-8" d="M237.46,56.43h-.09c.28,0,.56.07.81.19h-.41c-.92,0-1.67.75-1.67,1.67v4.43c0,.92.75,1.67,1.67,1.67h.26c-.21.08-.44.13-.66.13h.09c1.01,0,1.83-.82,1.83-1.83v-4.43c0-1.01-.82-1.83-1.83-1.83Z"/><path class="cls-2" d="M225.71,56.43h-.09c.28,0,.56.07.81.19h-.41c-.92,0-1.67.75-1.67,1.67v4.43c0,.92.75,1.67,1.67,1.67h.26c-.21.08-.44.13-.66.13h.09c1.01,0,1.83-.82,1.83-1.83v-4.43c0-1.01-.82-1.83-1.83-1.83Z"/><path class="cls-8" d="M225.71,56.43h-.09c.28,0,.56.07.81.19h-.41c-.92,0-1.67.75-1.67,1.67v4.43c0,.92.75,1.67,1.67,1.67h.26c-.21.08-.44.13-.66.13h.09c1.01,0,1.83-.82,1.83-1.83v-4.43c0-1.01-.82-1.83-1.83-1.83Z"/><path class="cls-2" d="M226.03,64.41c-.92,0-1.67-.75-1.67-1.67v-4.43c0-.92.75-1.67,1.67-1.67h.41c-.25-.13-.53-.19-.81-.19h-4.43c-1.01,0-1.83.82-1.83,1.83v4.43c0,1.01.82,1.83,1.83,1.83h4.43c.23,0,.45-.04.66-.13h-.26Z"/><path class="cls-7" d="M237.78,64.41c-.92,0-1.67-.75-1.67-1.67v-4.43c0-.92.75-1.67,1.67-1.67h.41c-.25-.13-.53-.19-.81-.19h-4.43c-1.01,0-1.83.82-1.83,1.83v4.43c0,1.01.82,1.83,1.83,1.83h4.43c.23,0,.45-.04.66-.13h-.26Z"/><path class="cls-3" d="M243.02,57.55c1.63,2.24,3.12,4.57,4.46,6.99h-2.78c-1.01,0-1.83-.82-1.83-1.83v-4.43c0-.25.05-.5.15-.73Z"/><path class="cls-12" d="M237.45,66.87l-1.55-2.33-1.14-1.7c-.19-.29-.59-.37-.88-.18-.12.08-.21.2-.25.34l-.48,1.54-.96,3.09c-.1.33.08.69.42.79.17.05.36.03.52-.07l.34-.21c.22-.14.51-.07.65.15.04.06.06.13.07.21l.31,3.41c.03.32.3.57.63.57.02,0,.04,0,.06,0l.48-.04c.35-.03.6-.34.57-.69,0,0,0,0,0,0l-.32-3.53c-.02-.26.17-.49.43-.51.08,0,.17,0,.24.04l.07.03c.32.15.69,0,.84-.31.09-.2.07-.43-.05-.62Z"/><path class="cls-16" d="M0,92.67h32.9c46.9,0,56.37-13.9,65.76-31.15,9.39-17.25,16.2-28.11,34.36-41.19,18.17-13.08,54.8-23.92,92.83-5.85,38.03,18.06,49.64,59.4,50.21,72.03.56,12.63,1.81,34.06-11.77,56.68-13.58,22.62-37.19,39.32-63.16,44.62-25.97,5.3-53.88-4.95-66.08-12.83-12.22-7.9-32.04-19.6-41.8-64.11-7.74-35.33,8.06-57.83,17.61-71.36,9.55-13.53,27.5-28.67,48.74-35.25,21.23-6.58,54.76-5.78,76.86,10.94,22.1,16.72,36.6,34.1,41.37,66.43,4.77,32.33-9.74,59.94-26.31,76.28-16.57,16.34-32.49,21.25-46.33,25.14-11.94,3.35-42.76,2.96-65.59-10.74-20.97-12.58-30.11-25.75-36.56-39.84-6.38-13.96-11.5-29.8-8.12-52.54,3.41-22.93,25.79-46.81,34.08-53.88,8.29-7.08,22.16-18.32,41.83-23.06,19.67-4.74,40.47-3.94,63.48,7.2,23.01,11.13,39.62,35.47,45.43,51.53,5.53,15.28,8.15,32.35,3.2,50.68-4.98,18.48-14.34,37.04-31.96,51.94-11.72,9.91-34.84,26.38-76.23,18.89-41.39-7.49-61.35-41.97-64.86-50.18s-13.58-29.11-7.15-60.11c6.44-31,22.36-44.87,33.71-51.66,11.35-6.79,35.65-22.12,72.12-14.57,36.47,7.54,51.84,31.14,62.74,48.16,11.59,18.11,12.04,48.09,7.48,64.22-1.73,6.14-6.99,20.76-6.99,20.76,0,0,24.7-46.25,62.84-45.02h40.55"/></g></svg>