<?xml version="1.0" encoding="UTF-8"?><svg id="_レイヤー_2" xmlns="http://www.w3.org/2000/svg" viewBox="0 0 426.92 256.19"><defs><style>.cls-1{fill:#dedede;}.cls-1,.cls-2,.cls-3,.cls-4,.cls-5,.cls-6,.cls-7,.cls-8,.cls-9,.cls-10,.cls-11,.cls-12,.cls-13,.cls-14,.cls-15{stroke-width:0px;}.cls-2,.cls-5{fill:#e5bfd3;}.cls-3,.cls-9{fill:#ff6580;}.cls-4{fill:#ffb2b2;}.cls-5,.cls-8,.cls-9,.cls-10{isolation:isolate;}.cls-5,.cls-9,.cls-10{opacity:.74;}.cls-6{fill:#e0e0e0;}.cls-7,.cls-10{fill:#3f3d56;}.cls-8{fill:#000;opacity:.21;}.cls-16{fill:none;stroke:#2d3487;stroke-miterlimit:10;stroke-width:.66px;}.cls-11{fill:#2f2e41;}.cls-12{fill:#c6c6c6;}.cls-13{fill:#ececec;}.cls-14{fill:#fff;}.cls-15{fill:#fff9f2;}</style></defs><g id="_デザイン"><circle class="cls-15" cx="131.83" cy="129.17" r="126.5"/><path class="cls-13" d="M212.92,87.83c-1.83-3.31-3.87-6.5-6.1-9.57-1.56-2.15-3.21-4.22-4.94-6.23h0c-3.14-3.63-6.56-7.01-10.22-10.11-.75-.64-1.51-1.26-2.28-1.87-6.95-5.53-14.65-10.03-22.87-13.36l.07,12.02.79,136.99h-68.21l-3.84-136.73.29-11.83c-33.44,14.06-56.92,47.13-56.92,85.68,0,7.96,1.01,15.88,3.02,23.58.85,3.25,1.88,6.46,3.08,9.6.43,1.14.89,2.27,1.37,3.39.23.55.47,1.09.71,1.62.31.7.64,1.41.98,2.1.26.55.53,1.09.8,1.62.35.71.72,1.41,1.1,2.1.29.55.59,1.09.89,1.62,4.9,8.68,11.17,16.51,18.55,23.2,2.1,1.91,4.29,3.72,6.57,5.43,33.07,24.85,78.58,24.85,111.65,0,1.24-.93,2.45-1.89,3.64-2.88.79-.66,1.56-1.32,2.33-2,.2-.18.4-.36.6-.54,6.81-6.17,12.67-13.31,17.39-21.2,1.73-2.89,3.31-5.87,4.71-8.94.37-.81.73-1.62,1.08-2.45,1.6-3.77,2.95-7.64,4.03-11.59.17-.61.33-1.22.48-1.84h0c.03-.11.05-.22.08-.32.16-.65.31-1.3.46-1.95h0c.48-2.1.88-4.23,1.21-6.38.04-.28.08-.55.12-.83.02-.1.03-.2.04-.3h0c.23-1.66.42-3.34.57-5.02.23-2.65.34-5.32.34-8.03.02-15.74-3.97-31.23-11.6-44.99Z"/><path class="cls-6" d="M203.8,188.91c5.5-7.43,7.61-17.9,3.34-26.09-4.01,9.22-11.16,16.72-20.17,21.18-3.48,1.71-7.53,3.24-9.14,6.77-1,2.19-.81,4.79,0,7.06.81,2.27,2.18,4.3,3.53,6.29l.07.6c8.54-3.54,16.87-8.37,22.37-15.8Z"/><path class="cls-14" d="M206.95,162.88c-.25,7.65-2.9,15.02-7.57,21.08-.98,1.32-2.17,2.48-3.51,3.43-1.34.89-2.89,1.4-4.5,1.48-1.49.11-3.03.04-4.48.51-1.49.51-2.68,1.62-3.29,3.07-.8,1.76-.92,3.71-.96,5.61-.05,2.11-.08,4.31-1.07,6.23-.12.23.25.41.37.17,1.74-3.34.61-7.26,1.64-10.77.48-1.64,1.46-3.15,3.1-3.8,1.43-.57,3.02-.51,4.53-.61,1.57-.06,3.09-.5,4.45-1.28,1.39-.88,2.62-1.99,3.63-3.28,2.33-2.87,4.2-6.1,5.53-9.55,1.54-3.93,2.4-8.1,2.54-12.33,0-.26-.4-.22-.41.04Z"/><path class="cls-14" d="M201,182.1c2.32,1.34,5.26.8,6.96-1.28.17-.2-.14-.47-.31-.27-1.57,1.93-4.32,2.43-6.47,1.17-.23-.13-.4.24-.17.37h0Z"/><path class="cls-14" d="M192.13,188.92c-.71-2.55-.43-5.28.78-7.63.12-.23-.25-.41-.37-.17-1.25,2.45-1.54,5.29-.79,7.94.07.25.45.11.38-.14Z"/><path class="cls-14" d="M205.82,171.26c-.99-.32-1.75-1.12-2.02-2.13-.07-.25-.45-.11-.38.14.31,1.11,1.14,1.99,2.23,2.36.1.04.22,0,.27-.1.05-.1,0-.22-.1-.27h0Z"/><path class="cls-6" d="M176.52,156.29c.04.16.08.32.11.48.5,2.15.82,4.33.97,6.53.01.17.03.34.03.51.29,5.31-.4,10.62-2.05,15.67-.66,2.01-1.47,3.97-2.42,5.85-1.32,2.61-2.95,5.33-3.32,8.13-.04.29-.07.59-.07.88l10.92,10.39s.07.02.11.04l.42.43c.06-.09.11-.19.17-.29.03-.05.06-.11.1-.17.02-.04.04-.07.06-.11,0-.01.01-.02.02-.03.02-.03.04-.06.06-.09.31-.55.63-1.1.93-1.66t0,0c2.34-4.25,4.34-8.72,5.6-13.36.04-.14.08-.28.11-.43.56-2.09.94-4.23,1.15-6.39.11-1.18.16-2.37.15-3.55-.03-3.07-.54-6.11-1.52-9.02-1.95-5.79-5.73-10.9-11.11-13.62-.14-.07-.27-.14-.41-.2Z"/><path class="cls-14" d="M176.41,156.46c4.41,6.25,6.73,13.74,6.64,21.39.01,1.65-.24,3.29-.74,4.86-.54,1.51-1.47,2.86-2.7,3.89-1.13.98-2.4,1.86-3.27,3.1-.88,1.3-1.17,2.91-.78,4.43.42,1.89,1.5,3.51,2.61,5.06,1.23,1.72,2.53,3.49,2.9,5.62.04.26.44.18.4-.08-.63-3.72-3.88-6.16-5.17-9.59-.6-1.6-.73-3.39.19-4.9.8-1.32,2.1-2.23,3.26-3.21,1.22-.99,2.17-2.26,2.78-3.7.58-1.54.89-3.17.92-4.81.13-3.7-.32-7.4-1.33-10.96-1.14-4.07-2.96-7.91-5.4-11.37-.15-.21-.45.06-.3.27h0Z"/><path class="cls-14" d="M183.23,175.38c2.66-.33,4.68-2.53,4.79-5.21,0-.26-.4-.29-.41-.03-.09,2.49-1.99,4.54-4.46,4.84-.26.03-.18.43.08.4h0Z"/><path class="cls-14" d="M180.26,186.17c-2.1-1.61-3.52-3.95-3.98-6.56-.04-.26-.44-.18-.4.08.48,2.71,1.96,5.15,4.15,6.82.21.16.43-.18.22-.34h0Z"/><path class="cls-14" d="M180.55,163.82c-.98.34-2.07.15-2.89-.48-.21-.16-.43.18-.22.34.91.7,2.11.9,3.2.54.11-.03.18-.13.16-.24-.02-.11-.13-.18-.24-.16h0Z"/><path class="cls-6" d="M32.87,147.29c-4.88-7.85-6.13-18.46-1.21-26.28,3.25,9.51,9.76,17.57,18.38,22.75,3.33,1.98,7.24,3.84,8.56,7.49.82,2.27.42,4.84-.57,7.04-.99,2.2-2.52,4.11-4.03,5.98l-.12.59c-8.22-4.22-16.14-9.72-21.01-17.57Z"/><path class="cls-14" d="M31.84,121.09c-.38,7.64,1.67,15.21,5.84,21.63.87,1.4,1.96,2.65,3.22,3.71,1.26.99,2.77,1.63,4.36,1.84,1.48.23,3.02.29,4.42.87,1.44.63,2.54,1.84,3.03,3.33.65,1.82.61,3.77.51,5.67-.12,2.11-.27,4.3.56,6.3.1.24-.28.39-.38.14-1.46-3.47-.02-7.28-.76-10.87-.35-1.67-1.2-3.25-2.78-4.04-1.38-.69-2.97-.75-4.47-.97-1.56-.18-3.04-.75-4.33-1.64-1.31-.99-2.45-2.2-3.35-3.57-2.09-3.05-3.69-6.42-4.74-9.97-1.22-4.05-1.73-8.27-1.53-12.49.01-.26.41-.19.4.07h0Z"/><path class="cls-14" d="M36.21,140.73c-2.42,1.14-5.31.36-6.83-1.84-.15-.22.18-.46.33-.24,1.41,2.05,4.11,2.77,6.36,1.7.24-.11.38.27.14.38h0Z"/><path class="cls-14" d="M44.49,148.25c.92-2.49.86-5.22-.15-7.67-.1-.24.28-.39.38-.14,1.05,2.55,1.1,5.4.14,7.98-.09.25-.46.08-.37-.17h0Z"/><path class="cls-14" d="M32.28,129.53c1.01-.24,1.83-.98,2.19-1.96.09-.25.46-.08.37.17-.39,1.08-1.3,1.89-2.41,2.17-.11.04-.22-.02-.26-.12-.04-.11.01-.22.12-.26Z"/><path class="cls-6" d="M62.71,117c-.05.16-.1.31-.15.47-.67,2.1-1.17,4.25-1.5,6.43-.03.17-.05.34-.08.51-.72,5.26-.46,10.62.77,15.78.49,2.06,1.14,4.07,1.94,6.03,1.1,2.7,2.51,5.55,2.65,8.38.02.29.02.59,0,.89l-11.72,9.47s-.07.02-.11.03l-.45.4c-.05-.1-.1-.2-.14-.3-.03-.06-.05-.12-.08-.17-.02-.04-.04-.08-.05-.11,0-.01-.01-.03-.02-.04-.02-.03-.03-.07-.05-.1-.27-.57-.53-1.15-.8-1.73t0,0c-1.98-4.42-3.62-9.05-4.5-13.78-.03-.14-.06-.29-.08-.43-.38-2.13-.59-4.29-.63-6.46-.01-1.19.03-2.37.14-3.56.28-3.05,1.04-6.04,2.25-8.86,2.41-5.62,6.59-10.4,12.18-12.67.14-.06.28-.11.43-.17Z"/><path class="cls-14" d="M62.8,117.17c-4.9,5.88-7.83,13.15-8.36,20.78-.14,1.64-.03,3.29.34,4.9.41,1.55,1.23,2.97,2.37,4.09,1.04,1.07,2.24,2.05,3,3.36.77,1.37.92,3,.42,4.48-.58,1.85-1.78,3.38-3.01,4.83-1.37,1.62-2.81,3.27-3.34,5.37-.06.25-.46.14-.39-.11.93-3.65,4.37-5.82,5.94-9.14.73-1.55,1-3.32.21-4.9-.69-1.38-1.92-2.39-2.98-3.47-1.13-1.08-1.98-2.43-2.47-3.92-.45-1.58-.63-3.23-.53-4.87.17-3.7.92-7.35,2.22-10.81,1.46-3.96,3.6-7.65,6.3-10.89.17-.2.45.1.28.3h0Z"/><path class="cls-14" d="M54.47,135.48c-2.62-.54-4.46-2.91-4.35-5.58,0-.11.1-.2.21-.19.11,0,.19.09.19.2-.11,2.49,1.61,4.69,4.05,5.18.26.05.14.44-.11.39h0Z"/><path class="cls-14" d="M56.55,146.47c2.23-1.43,3.83-3.65,4.5-6.22.07-.25.46-.14.39.11-.7,2.67-2.37,4.97-4.69,6.46-.22.14-.42-.22-.2-.36h0Z"/><path class="cls-14" d="M58.07,124.18c.95.41,2.05.32,2.92-.25.22-.14.41.21.2.36-.96.62-2.18.73-3.23.28-.11-.03-.17-.15-.14-.25.03-.11.14-.17.25-.14Z"/><circle class="cls-3" cx="123.41" cy="54.22" r="12.91"/><path class="cls-6" d="M162.93,53.55c-1.16-1.23-2.39-2.39-3.68-3.49-2.51-2.13-5.3-3.95-8.4-5.09-1.17-.43-2.38-.75-3.6-.95-.15-.02-.29-.05-.44-.07-.01,0-.02,0-.03,0-.02,0-.05-.01-.07-.01-.3-.04-.6-.07-.91-.09-1.64-.11-3.28.04-4.87.44-.92.23-1.82.55-2.69.94-.87.43-1.71.9-2.53,1.43-.44.26-.89.51-1.35.73-1.35.64-2.77,1.09-4.23,1.36-.99.18-1.99.28-3,.3-.87.02-1.7.05-2.52.36-1.79.67-3.16,2.15-3.69,3.99-.04.17.03.34.17.43.22.16.44.34.68.49.21.1.43.16.66.18.37.08.75.15,1.12.23,1.38.27,2.76.52,4.15.73,2.8.42,5.61.72,8.44.89.02,0,.03,0,.05,0,3.2.19,6.4.22,9.6.09.48-.02.97-.04,1.45-.07,2.02-.11,4.03-.29,6.04-.53,1.86-.23,3.71-.51,5.55-.84,1.32-.24,2.63-.51,3.93-.8.2-.06.32-.27.26-.48-.02-.06-.05-.11-.09-.16Z"/><path class="cls-6" d="M136.1,70.76c-1.87-2-3.93-3.81-6.15-5.41-.74-.52-1.49-1-2.27-1.45-.96-.55-1.95-1.04-2.97-1.45-.23-.09-.46-.18-.69-.27-1.31-.48-2.66-.83-4.05-1.02-.01,0-.02,0-.03,0-.02,0-.05,0-.07-.01-.67-.09-1.34-.13-2.02-.12-.48,0-.97.03-1.45.07-.78.08-1.55.21-2.31.4-.38.09-.75.2-1.12.33-.54.18-1.06.38-1.57.61,0,0-.02,0-.02.01-.86.42-1.7.9-2.5,1.42-.02.01-.04.02-.05.03-.91.55-1.88,1-2.88,1.35-.86.3-1.75.54-2.65.7-.99.18-1.99.28-3,.29-.87.02-1.7.05-2.52.36-1.79.67-3.16,2.15-3.69,3.99-.04.17.03.34.17.43.22.16.44.34.68.48.21.1.43.16.66.18.37.08.75.16,1.12.23,1.38.27,2.76.52,4.16.73,1.91.29,3.83.52,5.75.69.91.08,1.82.15,2.74.21,2.34.14,4.69.2,7.04.17.48,0,.97-.02,1.45-.03,2.88-.08,5.74-.3,8.6-.65,3.19-.39,6.35-.93,9.48-1.64.2-.06.32-.27.26-.48-.02-.06-.05-.11-.09-.16Z"/><path class="cls-12" d="M103.93,36.11l11.37,157.15-22.74,2.02V38.11c2.71-2.12,6.6-2.45,11.37-2Z"/><path class="cls-12" d="M160.06,36.11l-11.37,157.15,22.74,2.02V38.11c-2.71-2.12-6.6-2.45-11.37-2Z"/><path class="cls-12" d="M171.97,38.18c-.71-1.73-2.21-2.93-3.94-2.93h-72.31c-2.41,0-4.37,2.31-4.37,5.16v156.2c-.02,1.45.52,2.84,1.51,3.9.52.54,1.17.94,1.89,1.14.32.09.64.13.97.13h72.31c.33,0,.66-.04.97-.13,1.95-.52,3.4-2.58,3.4-5.03V40.42c0-.77-.14-1.53-.43-2.24ZM170.95,196.62c0,1.9-1.31,3.45-2.92,3.45h-72.31c-1.34,0-2.47-1.06-2.81-2.51-.07-.31-.11-.62-.11-.94V40.42c0-1.9,1.31-3.45,2.92-3.45h72.31c.3,0,.59.05.87.16,1.19.44,2.05,1.75,2.05,3.29v156.2Z"/><rect class="cls-12" x="92.07" y="82.74" width="79.61" height="1.45"/><rect class="cls-12" x="92.07" y="52.77" width="79.61" height="1.45"/><rect class="cls-12" x="92.07" y="106.93" width="79.61" height="1.45"/><rect class="cls-12" x="116.45" y="35.91" width="1.45" height="91.59"/><rect class="cls-12" x="145.84" y="35.91" width="1.45" height="91.59"/><path class="cls-12" d="M180.75,192.71h-95.33c-3.61,0-6.53,2.93-6.53,6.53,0,.83.16,1.66.47,2.43.99,2.48,3.39,4.1,6.06,4.1h95.33c2.32,0,4.47-1.23,5.64-3.24.16-.28.31-.57.43-.87.31-.77.47-1.6.47-2.43,0-3.61-2.93-6.53-6.53-6.53Z"/><rect class="cls-12" x="92.55" y="124.11" width="79.12" height="4.84"/><path class="cls-12" d="M131.39,122.66h1.45c1.47,0,2.66,1.19,2.66,2.66h-6.77c0-1.47,1.19-2.66,2.66-2.66h0Z"/><circle id="b6ad44ff-295b-418b-9346-03b76e49c34f" class="cls-4" cx="133.51" cy="122.76" r="14.99"/><path id="e8f77054-5a04-4fda-83df-6cd2e0c3cac3-600" class="cls-11" d="M116.78,108.34c.11-1.72,1.25-3.48,4.87-4.4,0,0,6.21-7.94,14.65-3.78,0,0,4.09-.7,7.12,3.54,0,0,3.01-1.77,4.28,1.37,0,0,3.53,6.41,2.23,12.95-1.3,6.54-1.96,7.36-1.96,7.36,0,0,1.66-13.53-7.88-12.59-9.53.94-17.21-2.41-19.37,4.93-1.79,6.09-1.57,9.26-1.57,9.26,0,0-5.99-6.08-3.96-10.87,1.04-2.45,1.41-5.11,1.59-7.77Z"/><path class="cls-2" d="M92.73,204.71h82.94c-.55-6.33-.92-30.51-.92-32.1,0-7.02-5.74-14.68-5.74-14.68l-2.06-1.14-17.17-5.36-4.44-5.77c-.94-1.23-2.41-1.94-3.96-1.93l-14.04.11c-1.24,0-2.42.48-3.33,1.32l-8.69,8.06-12.75,6.09-.02-.02-.13.1-1.89,1.36-1.22.88s-3.19,3.83-5.74,15.32c-.38,1.73-.65,24.1-.83,27.77Z"/><path class="cls-12" d="M194.87,201.67c-.2.18-.4.36-.6.54-.76.68-1.54,1.35-2.33,2-1.19.99-2.4,1.95-3.64,2.88h-111.65c-2.27-1.71-4.46-3.52-6.57-5.43h124.79Z"/><polygon class="cls-11" points="153.94 202.97 112.9 202.97 113.77 198.85 153.08 198.85 153.94 202.97"/><path class="cls-7" d="M191.08,185.16h-10.68c-.49,0-.95.21-1.27.59-.15-.03-.3-.04-.45-.04-1.4,0-2.53,1.13-2.53,2.53,0,1.4,1.13,2.53,2.53,2.53h0c.38,0,.76-.09,1.1-.26l.18,2.19.71,8.65c.03.11.08.21.13.31.29.54.85.87,1.46.87h6.94c.61,0,1.17-.33,1.46-.87.05-.1.1-.2.13-.31l1.87-14.03c.27-.88-.22-1.82-1.11-2.09-.16-.05-.32-.07-.49-.07ZM178.68,190.05c-1,0-1.81-.81-1.81-1.81,0-1,.81-1.81,1.81-1.81.03,0,.06,0,.1.01-.07.29-.06.6.03.88l.76,2.48c-.27.16-.57.24-.89.24h0Z"/><path class="cls-7" d="M166.95,139.25h-67.61c-1.21,0-2.19.98-2.19,2.19v45.62c0,1.21.98,2.19,2.19,2.19h67.61c1.21,0,2.19-.98,2.19-2.19v-45.62c0-1.21-.98-2.19-2.19-2.19Z"/><path class="cls-11" d="M140.76,175.81h-15.82c-.47,0-.84.38-.84.84v24.98h17.5v-24.98c0-.47-.38-.84-.84-.84h0ZM132.91,190c-1.03,0-1.86-.84-1.87-1.87v-2.88c0-1.03.84-1.87,1.87-1.87s1.87.84,1.87,1.87v2.88c0,1.03-.84,1.86-1.87,1.87h0Z"/><path class="cls-7" d="M124.05,200.84v2.41c0,.26.21.47.47.47h16.67c.26,0,.47-.21.47-.47v-2.41h-17.61Z"/><circle class="cls-11" cx="165.52" cy="185.52" r="1.07"/><path class="cls-11" d="M107.88,183.97c-.21,0-.37.17-.37.37h0v1.92c0,.21.17.37.37.37.21,0,.37-.17.37-.37v-1.92c0-.21-.17-.37-.37-.37h0Z"/><path class="cls-11" d="M109.91,183.97c-.21,0-.37.17-.37.37h0v1.92c0,.21.17.37.37.37.21,0,.37-.17.37-.37v-1.92c0-.21-.17-.37-.37-.37h0Z"/><path class="cls-11" d="M111.94,183.97c-.21,0-.37.17-.37.37h0v1.92c0,.21.17.37.37.37.21,0,.37-.17.37-.37v-1.92c0-.21-.17-.37-.37-.37h0Z"/><path class="cls-11" d="M113.97,183.97c-.21,0-.37.17-.37.37h0v1.92c0,.21.17.37.37.37.21,0,.37-.17.37-.37v-1.92c0-.21-.17-.37-.37-.37h0Z"/><circle class="cls-4" cx="115.58" cy="196.24" r="5.65"/><circle class="cls-4" cx="155.03" cy="197.33" r="5.65"/><path class="cls-7" d="M213.31,129.17c-.56-.92-1.22-1.91-2.25-2.21-1.2-.35-2.43.34-3.48,1.03-3.12,2.05-6.13,4.26-9.01,6.64v.04c2.25-.15,4.11,5.81,6.35,5.65,1.62-.11,3.68-6.35,5.11-7.12.54-.29,1.07-.68,1.69-.71.76-.03,1.43.5,1.96,1.06,3.1,3.3,4,8.35,7.47,11.25-2.19-5.41-4.81-10.63-7.83-15.63Z"/><path class="cls-7" d="M219.28,137.19c1.64,2.95,3.37,5.85,5.2,8.68h0c-.01.1-.03.2-.04.3-.22-.34-.44-.68-.66-1.02-1.65-2.58-3.21-5.21-4.69-7.89-.7-1.27-1.39-2.56-2.06-3.85-.52-1-1.02-2.01-1.52-3.03-.14-.29-.28-.58-.41-.88-.32-.69-.64-1.38-.98-2.05-.39-.77-.86-1.58-1.57-2.1-.32-.25-.71-.4-1.11-.43-.57,0-1.13.16-1.61.46-3.67,1.93-7.1,4.3-10.21,7.04-3.11,2.74-5.9,5.83-8.3,9.21-.07.1-.25,0-.17-.1.29-.41.59-.82.89-1.22,3.77-5.01,8.39-9.32,13.65-12.73.88-.57,1.79-1.12,2.7-1.64.46-.26.93-.52,1.4-.76.45-.27.96-.42,1.49-.46,1.8-.03,2.74,2.01,3.38,3.39.2.43.4.86.61,1.29.78,1.63,1.59,3.24,2.43,4.85.52.99,1.05,1.97,1.59,2.95Z"/><path class="cls-7" d="M199.43,131.42c-.1-.12-.21-.23-.31-.35-.83-.92-1.72-1.83-2.86-2.35-.54-.26-1.14-.4-1.74-.4-.62.02-1.23.15-1.81.39-.27.11-.54.23-.8.36-.3.15-.59.31-.89.47-.55.3-1.09.62-1.63.95-1.07.66-2.1,1.37-3.1,2.13-.52.39-1.02.8-1.52,1.22-.46.39-.91.79-1.36,1.2-.09.09-.24-.05-.14-.14.12-.11.23-.22.35-.32.33-.3.67-.6,1.02-.89.63-.53,1.27-1.04,1.93-1.53,1.03-.76,2.09-1.47,3.19-2.13.55-.33,1.1-.64,1.67-.94.17-.09.34-.18.52-.26.39-.2.81-.37,1.23-.5.6-.19,1.23-.26,1.85-.18.6.09,1.18.29,1.71.59,1.12.63,1.99,1.59,2.84,2.54.09.1-.06.24-.14.14Z"/><path class="cls-7" d="M191.23,135.84c-.28.01-.57-.07-.8-.23-.62-.47-.6-1.6.05-3.45.36-1.01,1.12-1.83,2.11-2.27.92-.41,1.98-.42,2.91-.02.08.03.16.07.24.11h0c.53.3,1.03.65,1.49,1.05.39.34.8.64,1.24.91l.15.09-.14.1c-3.52,2.48-5.9,3.7-7.23,3.7Z"/><path class="cls-7" d="M204.76,121.1c-2.39,0-4.44-1.69-4.9-4.03-2.7.55-4.45,3.18-3.9,5.89s3.18,4.45,5.89,3.9c2.69-.55,4.44-3.17,3.91-5.86-.33.07-.66.1-.99.1Z"/><circle class="cls-10" cx="71.06" cy="121.68" r="7.45"/><circle class="cls-5" cx="78.51" cy="121.68" r="7.45"/><circle class="cls-9" cx="74.85" cy="115.74" r="7.45"/><rect class="cls-7" x="74.8" y="116.6" width="20.07" height=".43" transform="translate(-31.11 30.8) rotate(-17.44)"/><circle class="cls-7" cx="94.46" cy="113.74" r=".87"/><path class="cls-7" d="M218.75,152.83c1.27.9,2.5,1.81,3.89,2.5-.03.11-.05.21-.08.32-.17-.08-.34-.17-.51-.25-1.42-.74-2.64-1.75-3.97-2.63-.66-.46-1.38-.82-2.14-1.07-.79-.24-1.62-.34-2.45-.29-3.45.17-6.4,2.23-9.6,3.26-1.57.51-3.24.78-4.87.46-1.64-.32-3.09-1.19-4.53-1.97-1.42-.78-2.98-1.56-4.64-1.56-1.36,0-2.78.55-3.51,1.74-.05.08-.15.1-.22.05-.07-.05-.1-.14-.06-.22.16-.27.36-.52.59-.74.95-.9,2.34-1.25,3.62-1.15,1.65.13,3.16.92,4.6,1.7,1.52.83,3.07,1.73,4.83,1.91,1.73.18,3.45-.27,5.06-.88,3.11-1.18,6.18-3.16,9.64-2.94,1.63.1,3.03.81,4.35,1.74Z"/><path class="cls-2" d="M82.54,90.03v.44c-.15-.03-.29-.04-.44-.04h-2.27v4.88c0,1.5-1.22,2.72-2.72,2.72h-3.36v.75c0,.3.06.6.18.88h-.46c-.1-.28-.15-.58-.15-.88v-.75h-1.85v-.43h1.85v-4.88c0-1.5,1.22-2.72,2.72-2.72h3.36v-.76h.43v.76h2.27c.15,0,.3.01.44.04Z"/><path class="cls-7" d="M77.1,86.51h-6.06c-1.5,0-2.72,1.22-2.72,2.72v6.06c0,1.5,1.22,2.72,2.72,2.72h6.06c1.5,0,2.72-1.22,2.72-2.72v-6.07c0-1.5-1.22-2.71-2.72-2.71ZM79.39,95.3c0,1.26-1.03,2.29-2.29,2.29h-6.06c-1.26,0-2.29-1.03-2.29-2.29v-6.06c0-1.26,1.03-2.29,2.29-2.29h6.06c1.26,0,2.28,1.02,2.29,2.28v6.07Z"/><path class="cls-7" d="M73.31,97.59v.43h.43v-.43h-.43ZM73.31,97.59v.43h.43v-.43h-.43ZM82.54,90.03c-.15-.02-.29-.04-.44-.04h-6.06c-1.5,0-2.72,1.22-2.72,2.72v6.06c0,.3.05.6.15.88.38,1.1,1.41,1.85,2.58,1.85h6.06c1.5,0,2.72-1.22,2.72-2.72v-6.06c0-1.33-.97-2.47-2.28-2.69ZM84.38,98.77c0,1.26-1.03,2.29-2.29,2.29h-6.06c-1.26,0-2.29-1.03-2.29-2.29v-6.06c0-1.26,1.03-2.29,2.29-2.29h6.06c1.26,0,2.29,1.02,2.29,2.29v6.06ZM73.31,97.59v.43h.43v-.43h-.43Z"/><path class="cls-2" d="M69.02,154.2h-25.76c-.37,0-.68.3-.68.68v1.53c.85,3.25,1.88,6.46,3.08,9.6h23.35c.37,0,.68-.3.68-.67h0v-10.45c0-.37-.3-.67-.68-.68Z"/><path class="cls-1" d="M66.56,169.39h-19.52c.23.55.47,1.09.71,1.62h18.81c1.06.02,1.05-1.64,0-1.62Z"/><path class="cls-1" d="M66.56,173.12h-17.83c.26.55.53,1.09.8,1.62h17.03c1.06.02,1.05-1.64,0-1.62Z"/><path class="cls-1" d="M66.56,176.84h-15.93c.29.55.59,1.09.89,1.62h15.03c1.06.02,1.05-1.64,0-1.62Z"/><path class="cls-7" d="M200.09,76.74h-.12c.39,0,.77.09,1.11.26h-.56c-1.26,0-2.29,1.03-2.29,2.29v6.06c0,1.26,1.03,2.29,2.29,2.29h.36c-.29.11-.6.17-.91.17h.12c1.38,0,2.5-1.12,2.51-2.51v-6.06c0-1.38-1.12-2.5-2.51-2.51Z"/><path class="cls-8" d="M200.09,76.74h-.12c.39,0,.77.09,1.11.26h-.56c-1.26,0-2.29,1.03-2.29,2.29v6.06c0,1.26,1.03,2.29,2.29,2.29h.36c-.29.11-.6.17-.91.17h.12c1.38,0,2.5-1.12,2.51-2.51v-6.06c0-1.38-1.12-2.5-2.51-2.51Z"/><path class="cls-2" d="M184.02,76.74h-.12c.39,0,.77.09,1.11.26h-.56c-1.26,0-2.29,1.03-2.29,2.29v6.06c0,1.26,1.03,2.29,2.29,2.29h.36c-.29.11-.6.17-.91.17h.12c1.38,0,2.5-1.12,2.51-2.51v-6.06c0-1.38-1.12-2.5-2.51-2.51Z"/><path class="cls-8" d="M184.02,76.74h-.12c.39,0,.77.09,1.11.26h-.56c-1.26,0-2.29,1.03-2.29,2.29v6.06c0,1.26,1.03,2.29,2.29,2.29h.36c-.29.11-.6.17-.91.17h.12c1.38,0,2.5-1.12,2.51-2.51v-6.06c0-1.38-1.12-2.5-2.51-2.51Z"/><path class="cls-2" d="M184.46,87.66c-1.26,0-2.29-1.03-2.29-2.29v-6.06c0-1.26,1.03-2.29,2.29-2.29h.56c-.34-.17-.72-.26-1.11-.26h-6.06c-1.38,0-2.5,1.12-2.51,2.51v6.06c0,1.38,1.12,2.5,2.51,2.51h6.06c.31,0,.62-.06.91-.17h-.36Z"/><path class="cls-7" d="M200.53,87.66c-1.26,0-2.29-1.03-2.29-2.29v-6.06c0-1.26,1.03-2.29,2.29-2.29h.56c-.34-.17-.72-.26-1.11-.26h-6.06c-1.38,0-2.5,1.12-2.51,2.51v6.06c0,1.38,1.12,2.5,2.51,2.51h6.06c.31,0,.62-.06.91-.17h-.36Z"/><path class="cls-3" d="M207.69,78.26c2.23,3.06,4.26,6.26,6.1,9.57h-3.8c-1.38,0-2.5-1.12-2.51-2.51v-6.06c0-.34.07-.68.21-1Z"/><path class="cls-12" d="M200.08,91.01l-2.12-3.18-1.55-2.33c-.26-.4-.8-.5-1.2-.24-.17.11-.29.27-.35.46l-.65,2.1-1.32,4.22c-.14.46.11.94.57,1.08.24.07.5.04.71-.09l.47-.29c.3-.19.7-.09.89.21.05.09.08.18.09.28l.43,4.67c.04.44.41.78.86.79.03,0,.05,0,.08,0l.66-.06c.47-.04.83-.46.78-.94,0,0,0,0,0,0l-.44-4.82c-.03-.36.23-.67.59-.7.11-.01.23,0,.33.06l.1.04c.43.2.95,0,1.15-.42.13-.27.1-.59-.07-.84Z"/><path class="cls-16" d="M10.44,83.17c12.69-23.32,21.89-38,46.45-55.68,24.56-17.68,74.07-32.33,125.49-7.91,51.41,24.42,67.11,80.3,67.87,97.37.76,17.08,2.45,46.04-15.91,76.62-18.36,30.58-50.27,53.15-85.38,60.32-35.11,7.16-72.84-6.7-89.32-17.35-16.53-10.68-43.32-26.5-56.5-86.67C-7.34,102.12,14.03,71.69,26.94,53.41,39.85,35.12,64.12,14.65,92.82,5.76c28.7-8.89,74.02-7.81,103.9,14.79,29.87,22.61,49.48,46.09,55.92,89.8,6.45,43.71-13.16,81.03-35.57,103.11-22.41,22.09-43.91,28.73-62.63,33.99-16.14,4.53-57.8,4-88.67-14.51-28.35-17.01-40.7-34.8-49.42-53.86C7.73,160.22.81,138.8,5.39,108.05c4.62-31,34.87-63.27,46.07-72.84,11.21-9.56,29.96-24.77,56.55-31.17,26.59-6.41,54.7-5.33,85.81,9.73,31.11,15.05,53.55,47.95,61.42,69.66,7.48,20.65,11.01,43.73,4.33,68.51-6.74,24.98-19.38,50.07-43.21,70.22-15.85,13.4-47.1,35.66-103.05,25.53-55.95-10.13-82.94-56.73-87.69-67.84-4.75-11.11-18.36-39.36-9.66-81.26,8.7-41.9,30.23-60.66,45.57-69.83,15.34-9.17,48.19-29.9,97.49-19.7,49.3,10.2,70.08,42.09,84.81,65.11,15.67,24.49,16.28,65.01,10.11,86.82-2.34,8.3-9.44,28.07-9.44,28.07,0,0,33.38-62.52,84.95-60.86h97.47"/></g></svg>