<?xml version="1.0" encoding="UTF-8"?><svg id="_レイヤー_2" xmlns="http://www.w3.org/2000/svg" viewBox="0 0 119.15 36.78"><defs><style>.cls-1{fill:#f2cce0;stroke-width:0px;}</style></defs><g id="_デザイン"><path class="cls-1" d="M116.61,19.55c-.52-.04-1.05-.07-1.57-.11-9.52-.24-18.68,1.79-29.14,2.21-7.37-.06-15.51,1.75-22.71,2.79,17.23-1.41,35.08-4.57,52.1-3.23-1.44,1.62-3.25,3.02-5.55,3.39-5.64.35-11.17.83-16.65,1.41-.09-.58-.26-1.71-.35-2.28-15.18,4.11-30.27,1.62-45.31,6.68.59.23.33.75.27,1.13l-.11.02.11-.02c-.06.34.04.59,1,.45-.96.14-1.06-.11-1-.45,15.14-2.7,29.43-4.24,44.77-5.46-23.72,2.54-46.29,6.94-70.52,10.15-1.03.14-3.1.41-4.13.55-4.36-1.19-8.56-1.23-12.69-.71.66-3.02-4.2-8.26,4.19-8.17-.07-.58-.22-1.73-.3-2.31C.41,23.77-3.68,16.08,4.23,12.72c8.93-3.49,21.53-2.81,32.63-5.52,8.11-1.71,16.21-3.45,24.56-3.49,11.5.09,23.69-2.34,35.28-1.8,4.18-.06,11.06-2.92,13.38-1.53,1.6.59,1.86,1.8,1.85,3.2-6.76.88-13.47,1.88-20.14,2.65-8.24.61-16.49,1.13-24.79,1.18,8.19.41,16.46-.21,24.79-1.18,6.7-.5,13.4-1.07,20.11-1.51-.05,1.21-.09,2.47.5,3.54,0,0,2.05-.33,3.07-.5,4.56,2.21,4.19,6.4,2.61,9.6-.43.67-.91,1.42-1.46,2.18Z"/></g></svg>