<?xml version="1.0" encoding="UTF-8"?><svg id="_レイヤー_2" xmlns="http://www.w3.org/2000/svg" viewBox="0 0 375.19 189.52"><defs><style>.cls-1{fill:#ffb0b0;}.cls-1,.cls-2,.cls-3,.cls-4,.cls-5,.cls-6,.cls-7,.cls-8,.cls-9,.cls-10{stroke-width:0px;}.cls-2{fill:#e5bfd3;}.cls-3{fill:#e0e0e0;}.cls-4{fill:#000;isolation:isolate;opacity:.1;}.cls-5{fill:#3f3d56;}.cls-11{fill:none;stroke:#2d3487;stroke-miterlimit:10;stroke-width:.49px;}.cls-6{fill:#2f2e41;}.cls-7{fill:#9a616a;}.cls-8{fill:#ececec;}.cls-9{fill:#fff;}.cls-10{fill:#fff9f2;}</style></defs><g id="_デザイン"><circle class="cls-10" cx="187.54" cy="94.72" r="92.5"/><path class="cls-8" d="M148.34,125.02c-.07-.22-.61-.12-.67-.32-.05-.2.47-.36.87-.91.07-.1.53-.72.35-.99-.33-.5-2.63.74-3.18.05-.12-.15-.17-.42-.53-.9-.14-.19-.24-.29-.35-.29-.16,0-.21.2-.46.55-.37.53-.5.46-.74.9-.18.32-.2.53-.33.54-.18.02-.26-.38-.48-.4-.23-.02-.46.38-.57.69-.21.58-.08,1.03-.05,1.47.03.48-.04,1.19-.57,2.09l-4.93,7.86c1.06-1.6,4.07-5.97,5.28-7.57.35-.46.73-.93,1.3-1.01.56-.08,1.23.19,2.18.18.11,0,.42-.01.49-.17.06-.13-.09-.25-.04-.38.07-.17.41-.1.87-.21.32-.08.54-.21.73-.32.06-.03.91-.55.81-.84h0Z"/><path class="cls-8" d="M135.42,126.86c-.13-.03-.24.27-.35.24-.11-.03-.04-.33-.2-.69-.03-.06-.2-.47-.38-.46-.34.02-.39,1.5-.89,1.57-.11.02-.25-.04-.6,0-.14.01-.21.03-.24.09-.04.08.04.16.14.38.15.33.08.38.23.62.11.18.2.25.17.32-.04.1-.26.02-.34.12-.07.11.05.33.17.48.22.27.48.34.71.45.25.12.57.36.86.88l2.43,4.69c-.48-.98-1.76-3.72-2.19-4.78-.13-.31-.25-.62-.12-.93.12-.3.45-.55.72-1.02.03-.05.12-.21.06-.29-.05-.07-.15-.03-.2-.09-.06-.09.07-.23.15-.49.05-.18.05-.33.05-.45,0-.04,0-.6-.18-.64h0s0,0,0,0Z"/><path class="cls-8" d="M137.85,128l.08-.71.05-.04c.22-.21.35-.42.4-.65,0-.04.01-.07.02-.11.03-.15.06-.33.2-.51.08-.1.28-.34.5-.26.06.02.1.06.12.1,0,0,.01-.01.02-.02.09-.09.16-.12.22-.15.05-.02.1-.05.18-.12.04-.03.07-.06.09-.08.07-.07.17-.15.3-.11.14.04.19.17.22.26.06.16.07.26.09.34,0,.03,0,.06.01.06.03.08.41.1.56.1.32.02.6.03.67.25.05.16-.05.33-.31.53-.08.06-.16.1-.23.13.04.04.08.09.08.17h0c0,.18-.18.31-.54.4-.09.02-.21.05-.37.05-.07,0-.14-.02-.2-.03,0,.03-.02.06-.05.1-.08.09-.21.12-.39.06-.19-.05-.35-.13-.48-.19-.12-.06-.22-.1-.31-.12-.16-.02-.31.08-.49.21l-.45.33h0Z"/><path class="cls-8" d="M139.13,123.98l-.7.11-.05-.03c-.25-.16-.5-.23-.73-.23-.04,0-.07,0-.11,0-.15.01-.33.03-.55-.06-.12-.05-.4-.19-.38-.42,0-.06.03-.11.06-.14,0,0-.02,0-.03-.02-.11-.07-.16-.12-.2-.17-.04-.04-.07-.08-.16-.14-.04-.03-.07-.05-.1-.07-.08-.06-.18-.13-.19-.26,0-.14.12-.22.19-.28.14-.09.24-.14.3-.17.02-.01.05-.02.06-.03.07-.05-.01-.42-.04-.56-.06-.32-.12-.59.08-.71.14-.09.33-.03.59.16.08.06.14.13.19.19.03-.05.07-.1.14-.12h0c.17-.05.35.09.53.42.04.08.1.19.14.35.02.07.02.14.02.2.03,0,.07,0,.11.02.11.05.17.17.16.36,0,.2-.04.37-.06.52-.02.13-.05.24-.04.33.02.16.15.28.32.42l.44.35h0Z"/><path class="cls-8" d="M139.22,121.87l.08-.71.05-.04c.22-.21.35-.42.4-.65,0-.04.01-.07.02-.11.03-.15.06-.33.2-.51.08-.1.28-.34.5-.26.06.02.1.06.12.1,0,0,.01-.01.02-.02.09-.09.16-.12.22-.15.05-.02.1-.05.18-.12.04-.03.07-.06.09-.08.07-.07.17-.15.3-.11.14.04.19.17.22.26.06.16.07.26.09.34,0,.03,0,.06.01.06.03.08.41.1.56.1.32.02.6.03.67.25.05.16-.05.33-.31.53-.08.06-.16.1-.23.13.04.04.08.09.08.17h0c0,.18-.18.31-.54.4-.09.02-.21.05-.37.05-.07,0-.14-.02-.2-.03,0,.03-.02.06-.05.1-.08.09-.21.12-.39.06-.19-.05-.35-.13-.48-.19-.12-.06-.22-.1-.31-.12-.16-.02-.31.08-.49.21l-.45.33h0Z"/><path class="cls-8" d="M136.94,135.4l-.12-.12v-.17s0,.17,0,.17l-.17-.02s0-.05,0-.11c0-.32-.03-1.31.11-2.83.1-1.06.26-2.14.48-3.2.22-1.07.45-1.86.64-2.49.14-.48.28-.94.42-1.38.37-1.19.71-2.31.93-3.58.05-.29.15-.88-.06-1.58-.12-.41-.32-.79-.6-1.14l.27-.22c.31.38.53.81.66,1.26.23.78.12,1.42.07,1.73-.22,1.3-.57,2.43-.94,3.63-.14.44-.28.9-.41,1.37-.18.63-.41,1.42-.63,2.47-.22,1.05-.38,2.11-.47,3.16-.14,1.5-.12,2.48-.11,2.8,0,.17,0,.21-.05.26h0s0,0,0,0Z"/><path class="cls-8" d="M137.8,119.34s-.03,0-.04-.01c-.29-.08-.52-.31-.68-.69-.08-.18-.1-.37-.13-.74,0-.06-.03-.35,0-.74.02-.25.05-.36.12-.44.08-.09.18-.14.29-.17,0-.03.01-.07.04-.1.09-.13.24-.08.32-.05.04.01.09.03.15.04.09.02.14,0,.23-.02.08-.02.18-.05.31-.05.27,0,.46.12.53.16.34.21.46.53.6.91.03.08.12.35.14.7.02.25-.02.36-.06.43-.08.15-.2.22-.5.37-.31.16-.47.24-.59.28-.3.09-.48.15-.7.1h0s0,0,0,0Z"/><path class="cls-1" d="M177.25,97.87c.93-.78.68-2.6-.55-4.06-.54-.64-1.18-1.1-1.8-1.35l-.72-.83-9.28-11.62s-5.14-11.56-6.65-12.81c-1.52-1.25-3.3-.6-3.3-.6l-1.39,1.72,8.68,16.15,8.88,8.94,1.2,1.25c.15.66.5,1.37,1.03,2,1.23,1.46,2.98,2,3.91,1.22h0Z"/><polygon class="cls-3" points="159.74 69.35 162.07 72.76 165.4 77.7 159.41 79.77 154.11 70.69 159.74 69.35"/><rect class="cls-5" x="122.06" y="135.09" width="132.68" height=".4"/><path class="cls-6" d="M215.99,106.97h-10.58v-3.59c0-5.78,4.69-10.47,10.47-10.47h.11v14.06h0Z"/><polygon class="cls-7" points="207.77 105.09 209.52 99.35 214.02 99.13 215.99 106.97 207.77 105.09"/><polygon class="cls-4" points="207.77 105.09 209.52 99.35 214.02 99.13 215.99 106.97 207.77 105.09"/><circle class="cls-7" cx="211.86" cy="97.42" r="5.29"/><path class="cls-6" d="M200.65,126.99l-1.4,1.4s-7.48-5.02-10.35-3.15c-2.87,1.87-2.99,5.49.38,7.49s11.99,6.87,11.99,6.87c0,0,11.49,2,19.24-4.12,7.75-6.12,9.18-5.81,7.81-9.06-1.37-3.25-4.37-2.5-4.37-2.5l-5.75,3.37-2.37-.5-15.18.19h0Z"/><polyline class="cls-6" points="200.96 128.55 206.96 131.17 204.71 136.55 195.84 134.42"/><polyline class="cls-6" points="216.29 128.55 208.21 132.3 211.33 138.8 220.33 134.92"/><polygon class="cls-3" points="208.21 104.05 200.4 107.5 202.9 121.24 200.65 126.99 212.65 128.86 218.8 126.95 218.27 124.24 218.8 114.11 220.89 108.12 215.27 104.25 208.21 104.05"/><polygon class="cls-7" points="206.21 131.67 210.08 132.8 208.21 137.39 203.09 135.42 206.21 131.67"/><polygon class="cls-7" points="211.59 131.67 206.84 134.05 206.84 137.67 212.21 137.05 211.59 131.67"/><path class="cls-6" d="M204.71,138.55s8.25,5.5,11.37,3.25,4.87-5.12,4.25-5.5c-.62-.37-2.5-1-2.5-1l-10.5,2.12-2.62,1.12Z"/><path class="cls-6" d="M194.22,134.42s-4.25,6.5-.25,7.5c4,1,14.07-3.12,14.07-3.12l-.7-5.37-1.87,1.87-11.24-.87Z"/><path id="uuid-f90347b5-01d3-4a65-adde-e3fff0e81842-721" class="cls-7" d="M220.69,89.45c-1.17-1.08-1.56-2.56-.87-3.3.69-.74,2.19-.47,3.36.61.47.43.84.96,1.06,1.55l4.89,4.64-2.23,2.25-4.59-4.81c-.61-.18-1.17-.5-1.63-.94h0Z"/><path class="cls-3" d="M219.36,103.84l8.86-4.32-4.58-7.88,1.43-2.91s11.15,6.21,10.04,10.74c-1.11,4.52-12.17,12.83-15.7,11.5-1.07-.4-1.69-1.12-2.04-1.93-.84-1.97.06-4.26,1.99-5.19h0Z"/><path class="cls-6" d="M201.74,101.7c.27-.82.8-1.53,1.04-2.36.32-1.1.99,1.34,1.05.2.12-2.17,3.44-7.75,5.33-8.82,1.89-1.07,2.98-.75,4.9.26,0,0,.93.06,2.1.63,1.16.57,2.21,1.49,2.66,2.71.36.96.32,2.02.44,3.05.33,2.85,1.93,5.55,1.59,8.4-.11.89-.44,1.81-1.17,2.33-.73.52-1.9.47-2.38-.29-.16-.26-.23-.56-.37-.84-.14-.27-.39-.52-.7-.52-.46.01-.69.63-.51,1.05s.61.68,1,.9c-.95.43-2.13.29-2.96-.33-.83-.63-1.28-1.73-1.13-2.76.22-1.45,2.33-1.15,2.58-2.6.18-1.05.82-2.82.65-3.87-.17-1.05-1.01.22-.13-.39-.97.47-3.03-2.72-4.04-3.08-1.01-.36-1.87-1.13-2.33-2.1-1.07,1.55-2.02,1.13-2.4,2.98-.38,1.85.25,7.55,1.84,8.59-.63.43-1.42-.45-1.72.25-.17.4-.28.84-.56,1.17-.53.63-1.52.67-2.3.41-.97-.33-1.81-1.06-2.26-1.98s-.54-2.02-.22-3h0Z"/><path id="uuid-bae71f6d-0a8e-4bcd-ae8c-7ec40a5eb615-722" class="cls-7" d="M188.21,100.46c-.29-1.57-1.33-2.69-2.32-2.51-1,.18-1.57,1.6-1.29,3.16.11.63.36,1.22.74,1.73l1.3,6.62,3.09-.67-1.61-6.45c.18-.61.21-1.26.08-1.88h0Z"/><path class="cls-3" d="M201.07,107.05l-8.39,5.16-4.2-8.09-3.23-.35s-.73,12.74,3.69,14.23c4.41,1.49,17.35-3.4,18.12-7.09.23-1.12-.04-2.03-.54-2.75-1.21-1.77-3.63-2.23-5.45-1.1h0Z"/><polygon class="cls-9" points="246.86 116.68 216.79 126.19 216.79 89.58 246.86 80.07 246.86 116.68"/><path class="cls-5" d="M216.59,126.46v-37.04l30.47-9.63v37.04l-30.47,9.63ZM217,89.72v36.19l29.66-9.38v-36.19l-29.66,9.38Z"/><polygon class="cls-9" points="173.23 124.81 197.34 132.43 197.34 103.07 173.23 95.44 173.23 124.81"/><path class="cls-5" d="M197.55,132.7l-.26-.08-24.26-7.67v-29.79l.26.08,24.26,7.67v29.79ZM173.43,124.66l23.71,7.49v-28.94l-23.71-7.49v28.94Z"/><path class="cls-2" d="M224.1,91.84c-.34,1.79.28,3.74,1.61,4.99,1.32,1.25,3.3,1.78,5.07,1.34,1.68-.42,3.25-2.19,2.54-3.77-.51-1.13-2.05-1.55-3.16-1.01s-1.73,1.84-1.66,3.08c.06,1.23.72,2.38,1.6,3.25,2.28,2.27,5.94,2.86,7.95,5.37,1.76,2.2,1.7,5.64-.12,7.78s-5.22,2.73-7.66,1.35c-1.01-.57-1.87-1.49-2.12-2.62-.25-1.13.25-2.46,1.31-2.93,2-.89,4.01,1.5,6.19,1.53,1.25.02,2.47-.85,2.86-2.04.39-1.19-.08-2.61-1.1-3.33"/><path class="cls-2" d="M181.79,117.46c.39,1.13-.41,2.52-1.59,2.75s-2.44-.75-2.51-1.95,1.07-2.32,2.27-2.22c1.93.15,3.06,2.79,4.99,2.66,1.32-.08,2.15-1.43,2.64-2.66.56-1.41.97-2.89,1.22-4.39.21-1.25.3-2.55,0-3.78s-1.05-2.4-2.18-2.98c-1.72-.87-4.07-.02-4.89,1.72s-.03,4.05,1.65,4.99c2.11,1.17,5.01.33,6.92,1.79,1.53,1.18,1.8,3.34,1.94,5.27.09,1.23.18,2.48-.07,3.68-.25,1.21-.89,2.39-1.96,3.01-.81.47-1.88.57-2.65.05s-1.07-1.72-.46-2.44c.49-.58,1.39-.68,2.11-.43s1.31.78,1.88,1.29"/><path class="cls-1" d="M162.1,57.74l-1.68,6.42-6.42-1.26s2.53-4.63,1.89-6.74l6.21,1.58h0Z"/><polygon class="cls-1" points="155.32 141.3 159.19 141.3 161.03 126.39 155.32 126.39 155.32 141.3"/><path class="cls-6" d="M168.57,141.22h0c.12.2.18.86.18,1.09h0c0,.72-.59,1.31-1.31,1.31h-11.97c-.49,0-.9-.4-.9-.9v-.5s-.59-1.5.63-3.34c0,0,1.52,1.45,3.78-.82l.67-1.21,4.83,3.54,2.68.33c.59.07,1.11-.01,1.41.5h0Z"/><path class="cls-6" d="M166.06,98.15l-5.33,36.25h-6.68l.89-20.69.47-10.88-1.36-5.18s-.62-1.15-1.14-2.55c-.59-1.57-1.05-3.46-.36-4.36.25-.33.91-.57,1.81-.76.55-.11,1.18-.2,1.87-.27,3.95-.39,9.57-.15,9.57-.15l.14,4.72.08,2.63.04,1.23h0Z"/><polygon class="cls-1" points="148.51 139.53 152.34 140.09 156.33 125.61 150.68 124.78 148.51 139.53"/><path class="cls-6" d="M161.63,141.37h0c.09.22.06.87.02,1.11h0c-.11.72-.77,1.21-1.49,1.11l-11.84-1.74c-.49-.07-.83-.53-.76-1.02l.07-.49s-.37-1.57,1.11-3.22c0,0,1.29,1.65,3.86-.26l.84-1.1,4.27,4.2,2.6.72c.57.16,1.1.15,1.32.7h0s0,0,0,0Z"/><path class="cls-6" d="M166.14,92.11l-.73,6.29-3.98,13.26-6.56,21.83-6.61-.97,5.93-31.04-.59-5.32s-.19-.53-.41-1.3c-.44-1.53-.98-4.03-.38-5.3.08-.17.18-.32.31-.44.24-.23.72-.37,1.36-.44,2.69-.3,8.23.57,10.69.99l.97,2.45h0Z"/><path class="cls-3" d="M161.05,62.27l7.26,9.16-1.3,9.55-1.12,9.71-13.15-2s2.84-6.84,3.16-7.16,1.11.46.55-.56-1.19-1.02-.66-1.55-4.1-7.37-4.1-11.05,2.21-6.63,2.21-6.63l7.16.53h0Z"/><circle class="cls-1" cx="159.35" cy="54.06" r="4.89"/><path class="cls-6" d="M159.13,63.42s.73-5.79.86-7.48c.13-1.68,2.51-4.31,2.51-4.31l1.68,1.36s1.43,0,.45-2.07c-.97-2.07-2.79-2.4-2.79-2.4,0,0-.19-2.72-3.56-2.4-3.37.32-4.86,3.04-4.86,3.04,0,0-.19-3.43-2.33-.91s-3.37,3.56-1.1,4.41c2.27.84,3.95.19,3.95.19,0,0-2.2.45-1.81,2.01.39,1.55-5.12,8.62-2.59,9.39,2.53.78,8.16,2.66,8.81,1.43s.78-2.27.78-2.27h0Z"/><path class="cls-1" d="M179.29,98.36c.93-.78.7-2.59-.52-4.06-.53-.64-1.17-1.11-1.79-1.37l-.71-.84-9.18-11.7s-5.04-11.61-6.55-12.87c-1.51-1.26-3.3-.63-3.3-.63l-1.41,1.71,8.54,16.22,8.8,9.01,1.19,1.26c.14.66.48,1.37,1.02,2.01,1.22,1.47,2.96,2.03,3.9,1.25h0Z"/><path class="cls-3" d="M155.31,66s2.25,11.66,4.8,13.38l5.1-3.97s.45-.02-.38-.96c-.83-.94-.62-2.95-.62-2.95,0,0,.37.48-.44-.19-.81-.67-.06-5.28-.06-5.28l-8.4-.03h0Z"/><path class="cls-11" d="M0,92.67h32.9c46.9,0,56.37-13.9,65.76-31.15,9.39-17.25,16.2-28.11,34.36-41.19,18.17-13.08,54.8-23.92,92.83-5.85,38.03,18.06,49.64,59.4,50.21,72.03.56,12.63,1.81,34.06-11.77,56.68-13.58,22.62-37.19,39.32-63.16,44.62-25.97,5.3-53.88-4.95-66.08-12.83-12.22-7.9-32.04-19.6-41.8-64.11-7.74-35.33,8.06-57.83,17.61-71.36,9.55-13.53,27.5-28.67,48.74-35.25,21.23-6.58,54.76-5.78,76.86,10.94,22.1,16.72,36.6,34.1,41.37,66.43,4.77,32.33-9.74,59.94-26.31,76.28-16.57,16.34-32.49,21.25-46.33,25.14-11.94,3.35-42.76,2.96-65.59-10.74-20.97-12.58-30.11-25.75-36.56-39.84-6.38-13.96-11.5-29.8-8.12-52.54,3.41-22.93,25.79-46.81,34.08-53.88,8.29-7.08,22.16-18.32,41.83-23.06,19.67-4.74,40.47-3.94,63.48,7.2,23.01,11.13,39.62,35.47,45.43,51.53,5.53,15.28,8.15,32.35,3.2,50.68-4.98,18.48-14.34,37.04-31.96,51.94-11.72,9.91-34.84,26.38-76.23,18.89-41.39-7.49-61.35-41.97-64.86-50.18s-13.58-29.11-7.15-60.11c6.44-31,22.36-44.87,33.71-51.66,11.35-6.79,35.65-22.12,72.12-14.57,36.47,7.54,51.84,31.14,62.74,48.16,11.59,18.11,12.04,48.09,7.48,64.22-1.73,6.14-6.99,20.76-6.99,20.76,0,0,24.7-46.25,62.84-45.02h40.55"/></g></svg>