<?xml version="1.0" encoding="UTF-8"?><svg id="_レイヤー_2" xmlns="http://www.w3.org/2000/svg" viewBox="0 0 375.19 189.52"><defs><style>.cls-1{fill:#ffb0b0;}.cls-1,.cls-2,.cls-3,.cls-4,.cls-5,.cls-6,.cls-7{stroke-width:0px;}.cls-2{fill:#e5bfd3;}.cls-3{fill:#e0e0e0;}.cls-4{fill:#3f3d56;}.cls-8{fill:none;stroke:#2d3487;stroke-miterlimit:10;stroke-width:.49px;}.cls-5{fill:#2f2e41;}.cls-6{fill:#ececec;}.cls-7{fill:#fff9f2;}</style></defs><g id="_デザイン"><circle class="cls-7" cx="187.54" cy="93.95" r="92.5"/><path class="cls-6" d="M247.65,96.79v39.35c0,2.22-1.8,4.02-4.03,4.03h-30.19l.28-.35,33.58-42.58.35-.45Z"/><path class="cls-3" d="M172.74,82.93h-34.66c-.59,0-1.07.48-1.07,1.07,0,.59.48,1.07,1.07,1.07h34.66c.59,0,1.07-.48,1.07-1.07,0-.59-.48-1.07-1.07-1.07Z"/><path class="cls-3" d="M148.83,76.92h-10.75c-.59,0-1.07.48-1.07,1.07,0,.59.48,1.07,1.07,1.07h10.75c.59,0,1.07-.48,1.07-1.07,0-.59-.48-1.07-1.07-1.07h0Z"/><path class="cls-3" d="M243.62,46.49h-114.9c-2.22,0-4.02,1.8-4.03,4.03v85.63c0,2.22,1.8,4.02,4.03,4.03h114.9c2.22,0,4.02-1.8,4.03-4.03V50.52c0-2.22-1.8-4.02-4.03-4.03ZM247.3,136.15c0,2.03-1.64,3.67-3.67,3.67h-114.9c-2.03,0-3.67-1.64-3.67-3.67h0v-61.68c0-15.25,12.37-27.62,27.62-27.62h90.95c2.03,0,3.67,1.64,3.67,3.67h0v85.63Z"/><path class="cls-3" d="M236.45,61.98h-100.55c-.1,0-.18-.08-.18-.18s.08-.18.18-.18h100.55c.1,0,.18.08.18.18s-.08.18-.18.18Z"/><ellipse class="cls-3" cx="140.93" cy="55.12" rx="1.5" ry="1.53"/><ellipse class="cls-3" cx="146.11" cy="55.12" rx="1.5" ry="1.53"/><ellipse class="cls-3" cx="151.3" cy="55.12" rx="1.5" ry="1.53"/><path class="cls-3" d="M157.21,56.33s-.09-.02-.13-.05l-1.01-1.03c-.07-.07-.07-.18,0-.25l1.01-1.03c.07-.07.18-.07.25,0,.07.07.07.18,0,.25,0,0,0,0,0,0l-.89.91.89.91c.07.07.07.18,0,.25-.03.03-.08.05-.12.05h0Z"/><path class="cls-3" d="M158.91,56.33c-.1,0-.18-.08-.18-.18,0-.05.02-.09.05-.12l.89-.91-.89-.91c-.07-.07-.07-.18,0-.25.07-.07.18-.07.25,0l1.01,1.03c.07.07.07.18,0,.25l-1.01,1.03s-.08.05-.13.05Z"/><path class="cls-3" d="M227.49,53.76h-1.88c-.21,0-.39.17-.39.39h0v1.88c0,.21.17.39.39.39h1.88c.21,0,.39-.17.39-.39v-1.88c0-.21-.18-.39-.39-.39Z"/><path class="cls-3" d="M222.87,53.76h-1.88c-.21,0-.39.17-.39.39h0v1.88c0,.21.17.39.39.39h1.88c.21,0,.39-.17.39-.39v-1.88c0-.21-.18-.39-.39-.39Z"/><path class="cls-3" d="M231.83,53.85h-1.88c-.21,0-.39.17-.39.39h0v1.88c0,.21.17.39.39.39h1.88c.21,0,.39-.17.39-.39v-1.88c0-.21-.18-.39-.39-.39Z"/><path class="cls-3" d="M193.7,54.56h-15.05c-.26,0-.47.21-.47.47,0,.26.21.47.47.47h15.05c.26,0,.47-.21.47-.47,0-.26-.21-.47-.47-.47Z"/><path class="cls-2" d="M153.37,119.32l-9-.28c-1.25-.04-2.65-.04-3.54.61-1.01.73-.86,2.03-.02,2.87s2.18,1.32,3.49,1.71c6.98,2.08,14.71,2.5,22.22,2.03,7.51-.47,14.86-1.8,22.17-3.12.69-.13,1.48-.31,1.76-.79.27-.47-.08-1.03-.64-1.33s-1.26-.4-1.94-.49c-12.32-1.62-24.78-1.97-37.17-1.06"/><path class="cls-4" d="M169.53,112.39v-2.13c-1.55.02-7.07-.02-8.52,0-.11,7.44-.77,5.98,5.33,6.01.58,0,1.06.48,1.06,1.06v.03c0,.58-.47,1.06-1.06,1.06h-5.33v2.13h8.52s0-2.06,0-2.13c.36-6.17-.35-3.95-5.53-4.2-.48-.02-.86-.42-.86-.9v-.03c0-.5.41-.9.9-.9h5.48Z"/><path class="cls-4" d="M180,112.39v-2.13c-1.55.02-7.07-.02-8.52,0-.11,7.51-.78,5.96,5.49,6.01.5,0,.9.41.9.9,0,.11,0,.23,0,.34,0,.5-.41.9-.9.9h-5.48v2.13h8.52s0-2.06,0-2.13c.36-6.17-.35-3.95-5.53-4.2-.48-.02-.86-.42-.86-.9v-.03c0-.5.41-.9.9-.9h5.48Z"/><path class="cls-4" d="M158.53,112.39v-2.13h-8.52c0,1.9,0,6.93,0,8.87-1.67,2.83,7.81.87,8.52,1.42,0,0,0-2.13,0-2.13-6.48-.03-6.64,1.18-6.43-4.69.03-.75.64-1.34,1.39-1.34,1.87,0,5.04,0,5.04,0Z"/><path class="cls-2" d="M175.37,93.88l-9-.24c-1.25-.03-2.65-.03-3.54.51-1.01.61-.86,1.69-.02,2.39s2.18,1.1,3.49,1.43c6.98,1.73,14.71,2.08,22.22,1.69s14.86-1.5,22.17-2.6c.69-.1,1.48-.26,1.76-.66.27-.39-.08-.86-.64-1.11s-1.26-.34-1.94-.41c-12.34-1.35-24.78-1.65-37.17-.88"/><path class="cls-4" d="M173.79,84.54c-.15,3.29,1.06,4.32-3.11,3.9-.28-1.96,1.15-4.68-2.13-3.99.66,1.42-1.83,12.21,2.13,10.29.22-3.24-1.24-4.66,3.11-4.17.35,2-1.28,4.95,2.13,4.26-.66-1.42,1.83-12.21-2.13-10.29Z"/><path class="cls-4" d="M195.62,84.54c.29.18-2.68,3.32-2.74,3.58-.09-.22-2.92-3.29-2.58-3.58-3.94-1.95-1.49,8.91-2.13,10.29,0,0,2.13,0,2.13,0v-6.74c2.99,4.04,2.44,3.36,5.32-.2v6.94c3.94,1.95,1.49-8.91,2.13-10.29,0,0-2.13,0-2.13,0Z"/><path class="cls-4" d="M186.21,84.54h-8.52c-.5,2.98,1.15,1.98,3.19,2.13v8.16s2.13,0,2.13,0v-8.16c2.03-.14,3.7.84,3.19-2.13Z"/><path class="cls-4" d="M201.65,92.7c-.49-2.7-.49-5.46,0-8.16h-2.13c.01,1.35,0,6.79,0,9.28,0,.56.45,1.01,1.01,1.01,2.15,0,6.24-.01,7.51,0v-2.13h-6.39Z"/><path class="cls-3" d="M147.26,93.06h-8.65c-.88,0-1.6.71-1.6,1.6s.71,1.6,1.6,1.6h8.65c.88,0,1.6-.71,1.6-1.6s-.71-1.6-1.6-1.6h0Z"/><path class="cls-1" d="M210.35,97.12c.81.69,2.35.21,3.43-1.07.47-.56.78-1.18.91-1.76l1.05-1.1,7.79-7.84,7.61-14.16-1.22-1.51s-1.57-.57-2.9.53c-1.33,1.1-5.84,11.24-5.84,11.24l-8.14,10.2-.63.73c-.55.22-1.11.63-1.58,1.19-1.08,1.28-1.3,2.87-.48,3.56h0Z"/><polygon class="cls-3" points="230.65 73.27 226 81.24 220.74 79.42 223.67 75.08 225.71 72.09 230.65 73.27"/><path class="cls-1" d="M223.64,61.91l5.45-1.38c-.55,1.85,1.66,5.91,1.66,5.91l-5.63,1.11-1.48-5.63h0Z"/><polygon class="cls-1" points="229.58 122.13 224.58 122.13 226.19 135.21 229.58 135.21 229.58 122.13"/><path class="cls-5" d="M217.96,135.14h0c.26-.45.72-.37,1.23-.44l2.35-.29,4.24-3.1.59,1.06c1.99,1.99,3.32.72,3.32.72,1.07,1.62.55,2.93.55,2.93v.44c0,.43-.35.79-.79.79h-10.5c-.64,0-1.15-.52-1.15-1.15h0c0-.21.06-.78.16-.96h0Z"/><path class="cls-5" d="M220.16,97.36l.03-1.07.07-2.31.13-4.14s4.93-.21,8.4.13c.6.06,1.16.14,1.64.23.79.16,1.36.37,1.59.66.6.79.2,2.44-.32,3.82-.46,1.22-1,2.23-1,2.23l-1.19,4.54.41,9.54.78,18.15h-5.86s-4.67-31.8-4.67-31.8h0Z"/><polygon class="cls-1" points="233.65 120.72 228.7 121.45 232.2 134.15 235.55 133.66 233.65 120.72"/><path class="cls-5" d="M224.05,135.27h0c.2-.48.66-.47,1.16-.61l2.28-.63,3.74-3.68.73.96c2.25,1.68,3.38.23,3.38.23,1.29,1.45.97,2.82.97,2.82l.06.43c.06.43-.23.83-.66.89l-10.39,1.53c-.63.09-1.21-.34-1.31-.97h0c-.03-.2-.06-.78.02-.97h0Z"/><path class="cls-5" d="M220.09,92.06l.85-2.15c2.16-.37,7.02-1.14,9.38-.87.56.06.99.19,1.19.39.11.11.2.24.27.39.53,1.12.05,3.31-.33,4.65-.19.68-.36,1.14-.36,1.14l-.52,4.67,5.21,27.23-5.8.85-5.75-19.15-3.5-11.63-.64-5.52h0Z"/><path class="cls-3" d="M224.56,65.88l6.28-.46s1.94,2.58,1.94,5.82c0,3.23-4.06,9.23-3.6,9.69s-.09.46-.58,1.36c-.49.9.21.21.49.49s2.77,6.28,2.77,6.28l-11.54,1.75-.98-8.52-1.14-8.37,6.37-8.03h0Z"/><circle class="cls-1" cx="226.05" cy="58.69" r="4.29"/><path class="cls-5" d="M226.25,66.89s.11.91.68,1.99,5.51-.57,7.73-1.25c2.22-.68-2.61-6.88-2.27-8.24s-1.59-1.76-1.59-1.76c0,0,1.48.57,3.47-.17,1.99-.74.91-1.65-.97-3.86s-2.05.8-2.05.8c0,0-1.31-2.39-4.26-2.67-2.95-.28-3.13,2.1-3.13,2.1,0,0-1.59.28-2.44,2.1-.85,1.82.4,1.82.4,1.82l1.48-1.19s2.09,2.31,2.2,3.78c.11,1.48.76,6.56.76,6.56h0Z"/><path class="cls-1" d="M208.56,97.54c.82.68,2.35.19,3.42-1.1.47-.56.77-1.19.89-1.76l1.04-1.1,7.72-7.9,7.49-14.23-1.23-1.5s-1.57-.56-2.89.55c-1.32,1.11-5.74,11.29-5.74,11.29l-8.05,10.26-.62.73c-.55.23-1.1.64-1.57,1.2-1.07,1.29-1.27,2.88-.45,3.56h0Z"/><path class="cls-3" d="M229.59,69.16l-7.37.03s.66,4.05-.05,4.63c-.71.59-.39.16-.39.16,0,0,.19,1.77-.54,2.59s-.34.84-.34.84l4.47,3.49c2.24-1.51,4.21-11.74,4.21-11.74h0Z"/><path class="cls-8" d="M0,92.67h32.9c46.9,0,56.37-13.9,65.76-31.15,9.39-17.25,16.2-28.11,34.36-41.19,18.17-13.08,54.8-23.92,92.83-5.85,38.03,18.06,49.64,59.4,50.21,72.03.56,12.63,1.81,34.06-11.77,56.68-13.58,22.62-37.19,39.32-63.16,44.62-25.97,5.3-53.88-4.95-66.08-12.83-12.22-7.9-32.04-19.6-41.8-64.11-7.74-35.33,8.06-57.83,17.61-71.36,9.55-13.53,27.5-28.67,48.74-35.25,21.23-6.58,54.76-5.78,76.86,10.94,22.1,16.72,36.6,34.1,41.37,66.43,4.77,32.33-9.74,59.94-26.31,76.28-16.57,16.34-32.49,21.25-46.33,25.14-11.94,3.35-42.76,2.96-65.59-10.74-20.97-12.58-30.11-25.75-36.56-39.84-6.38-13.96-11.5-29.8-8.12-52.54,3.41-22.93,25.79-46.81,34.08-53.88,8.29-7.08,22.16-18.32,41.83-23.06,19.67-4.74,40.47-3.94,63.48,7.2,23.01,11.13,39.62,35.47,45.43,51.53,5.53,15.28,8.15,32.35,3.2,50.68-4.98,18.48-14.34,37.04-31.96,51.94-11.72,9.91-34.84,26.38-76.23,18.89-41.39-7.49-61.35-41.97-64.86-50.18s-13.58-29.11-7.15-60.11c6.44-31,22.36-44.87,33.71-51.66,11.35-6.79,35.65-22.12,72.12-14.57,36.47,7.54,51.84,31.14,62.74,48.16,11.59,18.11,12.04,48.09,7.48,64.22-1.73,6.14-6.99,20.76-6.99,20.76,0,0,24.7-46.25,62.84-45.02h40.55"/></g></svg>