<?xml version="1.0" encoding="UTF-8"?><svg id="_レイヤー_2" xmlns="http://www.w3.org/2000/svg" viewBox="0 0 425.21 256.19"><defs><style>.cls-1{fill:#ffb0b0;}.cls-1,.cls-2,.cls-3,.cls-4,.cls-5,.cls-6,.cls-7{stroke-width:0px;}.cls-2{fill:#e5bfd3;}.cls-3{fill:#e0e0e0;}.cls-4{fill:#3f3d56;}.cls-8{fill:none;stroke:#2d3487;stroke-miterlimit:10;stroke-width:.66px;}.cls-5{fill:#2f2e41;}.cls-6{fill:#ececec;}.cls-7{fill:#fff9f2;}</style></defs><g id="_デザイン"><circle class="cls-7" cx="293.27" cy="128.44" r="126.7"/><path class="cls-8" d="M0,125.27h58.2c63.4,0,101.31-18.79,114-42.11,12.69-23.32,21.89-38,46.45-55.68,24.56-17.68,74.07-32.33,125.49-7.91,51.41,24.42,67.11,80.3,67.87,97.37.76,17.08,2.45,46.04-15.91,76.62-18.36,30.58-50.27,53.15-85.38,60.32-35.11,7.16-72.84-6.7-89.32-17.35-16.53-10.68-43.32-26.5-56.5-86.67-10.47-47.76,10.9-78.18,23.81-96.46,12.91-18.28,37.18-38.76,65.88-47.65,28.7-8.89,74.02-7.81,103.9,14.79,29.87,22.61,49.48,46.09,55.92,89.8,6.45,43.71-13.16,81.03-35.57,103.11-22.41,22.09-43.91,28.73-62.63,33.99-16.14,4.53-57.8,4-88.67-14.51-28.35-17.01-40.7-34.8-49.42-53.86-8.63-18.87-15.55-40.28-10.97-71.03,4.62-31,34.87-63.27,46.07-72.84,11.21-9.56,29.96-24.77,56.55-31.17,26.59-6.41,54.7-5.33,85.81,9.73,31.11,15.05,53.55,47.95,61.42,69.66,7.48,20.65,11.01,43.73,4.33,68.51-6.74,24.98-19.38,50.07-43.21,70.22-15.85,13.4-47.1,35.66-103.05,25.53-55.95-10.13-82.94-56.73-87.69-67.84-4.75-11.11-18.36-39.36-9.66-81.26,8.7-41.9,30.23-60.66,45.57-69.83,15.34-9.17,48.19-29.9,97.49-19.7,49.3,10.2,70.08,42.09,84.81,65.11,15.67,24.49,16.28,65.01,10.11,86.82-2.34,8.3-9.44,28.07-9.44,28.07"/><path class="cls-6" d="M377.04,131.76v53.91c0,3.04-2.47,5.51-5.51,5.51h-41.35l.38-.49,45.99-58.32.49-.62Z"/><path class="cls-3" d="M274.43,112.77h-47.48c-.81,0-1.47.66-1.47,1.47,0,.81.66,1.46,1.47,1.47h47.48c.81,0,1.47-.66,1.47-1.47,0-.81-.66-1.46-1.47-1.47Z"/><path class="cls-3" d="M241.67,104.54h-14.72c-.81,0-1.47.66-1.47,1.47,0,.81.66,1.46,1.47,1.47h14.72c.81,0,1.47-.66,1.47-1.47,0-.81-.66-1.46-1.47-1.47h0Z"/><path class="cls-3" d="M371.52,62.86h-157.39c-3.04,0-5.51,2.47-5.51,5.51v117.29c0,3.04,2.47,5.51,5.51,5.51h157.39c3.04,0,5.51-2.47,5.51-5.51v-117.29c0-3.04-2.47-5.51-5.51-5.51ZM376.55,185.66c0,2.78-2.25,5.03-5.03,5.03h-157.39c-2.78,0-5.03-2.25-5.03-5.03h0v-84.49c0-20.89,16.94-37.83,37.83-37.83h124.58c2.78,0,5.03,2.25,5.03,5.03h0v117.29Z"/><path class="cls-3" d="M361.7,84.07h-137.73c-.13,0-.24-.11-.24-.24s.11-.24.24-.24h137.73c.13,0,.24.11.24.24s-.11.24-.24.24Z"/><ellipse class="cls-3" cx="230.86" cy="74.67" rx="2.06" ry="2.1"/><ellipse class="cls-3" cx="237.96" cy="74.67" rx="2.06" ry="2.1"/><ellipse class="cls-3" cx="245.06" cy="74.67" rx="2.06" ry="2.1"/><path class="cls-3" d="M253.15,76.33c-.07,0-.13-.03-.17-.07l-1.39-1.42c-.09-.09-.09-.25,0-.34l1.39-1.42c.09-.1.25-.1.34,0,.1.09.1.25,0,.34,0,0,0,0,0,0l-1.22,1.25,1.22,1.25c.09.1.09.25,0,.34-.05.04-.11.07-.17.07h0Z"/><path class="cls-3" d="M255.48,76.33c-.13,0-.24-.11-.24-.24,0-.06.02-.12.07-.17l1.22-1.25-1.22-1.25c-.09-.1-.09-.25,0-.34.1-.09.25-.09.34,0l1.39,1.42c.09.09.09.25,0,.34l-1.39,1.42s-.11.07-.17.07Z"/><path class="cls-3" d="M349.42,72.81h-2.58c-.29,0-.53.24-.53.53h0v2.58c0,.29.24.53.53.53h2.58c.29,0,.53-.24.53-.53v-2.58c0-.29-.24-.53-.53-.53Z"/><path class="cls-3" d="M343.1,72.81h-2.58c-.29,0-.53.24-.53.53h0v2.58c0,.29.24.53.53.53h2.58c.29,0,.53-.24.53-.53v-2.58c0-.29-.24-.53-.53-.53Z"/><path class="cls-3" d="M355.37,72.93h-2.58c-.29,0-.53.24-.53.53h0v2.58c0,.29.24.53.53.53h2.58c.29,0,.53-.24.53-.53v-2.58c0-.29-.24-.53-.53-.53Z"/><path class="cls-3" d="M303.14,73.91h-20.61c-.36,0-.65.29-.65.65,0,.36.29.65.65.65h20.61c.36,0,.65-.29.65-.65,0-.36-.29-.65-.65-.65Z"/><path class="cls-2" d="M247.89,162.61l-12.33-.39c-1.71-.05-3.63-.05-4.85.83-1.38,1-1.17,2.78-.03,3.93,1.15,1.15,2.98,1.81,4.78,2.35,9.57,2.84,20.15,3.42,30.43,2.78s20.35-2.46,30.37-4.27c.95-.17,2.03-.42,2.41-1.08.37-.64-.12-1.41-.88-1.82s-1.73-.55-2.66-.68c-16.88-2.22-33.94-2.7-50.91-1.45"/><path class="cls-4" d="M270.04,153.13v-2.92c-2.12.03-9.69-.02-11.67,0-.15,10.19-1.05,8.2,7.3,8.24.8,0,1.45.65,1.45,1.45v.04c0,.8-.65,1.45-1.45,1.45h-7.3v2.92h11.67s-.01-2.82,0-2.92c.49-8.45-.48-5.41-7.57-5.75-.66-.03-1.18-.58-1.17-1.24v-.04c0-.68.55-1.24,1.24-1.24h7.51Z"/><path class="cls-4" d="M284.38,153.13v-2.92c-2.12.03-9.69-.02-11.67,0-.15,10.28-1.06,8.16,7.52,8.24.68,0,1.23.56,1.23,1.24,0,.15,0,.31,0,.46,0,.68-.55,1.24-1.24,1.24h-7.51v2.92h11.67s-.01-2.82,0-2.92c.49-8.45-.48-5.41-7.57-5.75-.66-.03-1.18-.58-1.17-1.24v-.04c0-.68.55-1.24,1.24-1.24h7.51Z"/><path class="cls-4" d="M254.97,153.13v-2.92h-11.67c0,2.6,0,9.49,0,12.15-2.29,3.87,10.7,1.19,11.67,1.95,0,0,0-2.92,0-2.92-8.88-.05-9.1,1.62-8.81-6.42.04-1.03.88-1.84,1.9-1.84,2.57,0,6.91,0,6.91,0Z"/><path class="cls-2" d="M278.03,127.77l-12.33-.32c-1.71-.05-3.63-.04-4.85.69-1.38.84-1.17,2.32-.03,3.28,1.15.96,2.98,1.51,4.78,1.96,9.57,2.37,20.15,2.85,30.43,2.32s20.35-2.05,30.37-3.56c.95-.14,2.03-.35,2.41-.9.37-.53-.12-1.18-.88-1.52s-1.73-.46-2.66-.56c-16.91-1.85-33.94-2.25-50.91-1.21"/><path class="cls-4" d="M275.87,114.97c-.2,4.5,1.46,5.92-4.25,5.35-.39-2.69,1.57-6.41-2.92-5.47.9,1.95-2.5,16.73,2.92,14.09.3-4.44-1.7-6.39,4.25-5.71.48,2.75-1.75,6.79,2.92,5.83-.9-1.95,2.5-16.73-2.92-14.1Z"/><path class="cls-4" d="M305.76,114.97c.4.25-3.67,4.55-3.76,4.9-.12-.3-4-4.51-3.54-4.9-5.4-2.67-2.04,12.2-2.92,14.1,0,0,2.92,0,2.92,0v-9.23c4.1,5.53,3.34,4.6,7.29-.27v9.51c5.4,2.67,2.04-12.2,2.92-14.1,0,0-2.92,0-2.92,0Z"/><path class="cls-4" d="M292.88,114.97h-11.67c-.69,4.09,1.58,2.72,4.37,2.92v11.18s2.92,0,2.92,0v-11.18c2.78-.19,5.07,1.15,4.37-2.92Z"/><path class="cls-4" d="M314.03,126.15c-.67-3.7-.67-7.48,0-11.18h-2.92c.02,1.85,0,9.3,0,12.71,0,.77.62,1.39,1.39,1.39,2.94,0,8.55-.02,10.28,0v-2.92h-8.75Z"/><path class="cls-3" d="M239.53,126.64h-11.85c-1.21,0-2.19.98-2.19,2.19s.98,2.19,2.19,2.19h11.85c1.21,0,2.19-.98,2.19-2.19s-.98-2.19-2.19-2.19h0Z"/><path class="cls-1" d="M325.94,132.2c1.11.94,3.22.28,4.7-1.47.65-.77,1.07-1.62,1.24-2.41l1.44-1.5,10.67-10.74,10.42-19.4-1.67-2.07s-2.14-.78-3.97.72c-1.82,1.5-8,15.4-8,15.4l-11.15,13.97-.86,1c-.75.3-1.52.86-2.17,1.63-1.48,1.75-1.77,3.93-.66,4.87h0Z"/><polygon class="cls-3" points="353.74 99.53 347.38 110.45 340.17 107.96 344.19 102.02 346.98 97.92 353.74 99.53"/><path class="cls-1" d="M344.14,83.98l7.46-1.9c-.76,2.53,2.28,8.09,2.28,8.09l-7.71,1.52-2.02-7.71h0Z"/><polygon class="cls-1" points="352.29 166.47 345.43 166.47 347.64 184.38 352.28 184.38 352.29 166.47"/><path class="cls-5" d="M336.37,184.28h0c.36-.61.99-.51,1.69-.6l3.22-.4,5.81-4.25.8,1.45c2.72,2.72,4.54.98,4.54.98,1.47,2.22.75,4.02.75,4.02v.6c0,.59-.48,1.08-1.08,1.08h-14.38c-.87,0-1.58-.71-1.58-1.58h0c0-.28.08-1.07.22-1.31h0Z"/><path class="cls-5" d="M339.39,132.53l.05-1.47.1-3.16.17-5.67s6.75-.29,11.5.18c.83.08,1.59.19,2.25.32,1.08.22,1.87.51,2.17.91.83,1.08.27,3.34-.44,5.24-.63,1.68-1.37,3.06-1.37,3.06l-1.63,6.22.56,13.07,1.07,24.86h-8.03s-6.4-43.55-6.4-43.55h0Z"/><polygon class="cls-1" points="357.86 164.53 351.08 165.53 355.87 182.93 360.47 182.25 357.86 164.53"/><path class="cls-5" d="M344.71,184.47h0c.27-.66.9-.65,1.59-.84l3.13-.86,5.13-5.05,1.01,1.32c3.09,2.3,4.64.31,4.64.31,1.77,1.98,1.33,3.87,1.33,3.87l.09.59c.09.59-.32,1.13-.91,1.22l-14.23,2.09c-.86.13-1.66-.47-1.79-1.33h0c-.04-.28-.08-1.07.03-1.33h0Z"/><path class="cls-5" d="M339.29,125.27l1.17-2.94c2.96-.51,9.62-1.56,12.85-1.19.77.09,1.35.26,1.63.53.15.15.27.33.37.53.72,1.53.07,4.53-.46,6.37-.26.93-.49,1.57-.49,1.57l-.71,6.39,7.13,37.29-7.94,1.17-7.88-26.23-4.79-15.93-.88-7.56h0Z"/><path class="cls-3" d="M345.41,89.42l8.6-.63s2.66,3.54,2.66,7.97-5.56,12.64-4.93,13.28-.13.63-.79,1.86.29.29.67.67,3.79,8.6,3.79,8.6l-15.81,2.4-1.34-11.67-1.57-11.47,8.72-11h0Z"/><circle class="cls-1" cx="347.44" cy="79.56" r="5.88"/><path class="cls-5" d="M347.72,90.8s.16,1.25.93,2.72,7.55-.78,10.59-1.71c3.04-.93-3.58-9.42-3.11-11.29s-2.18-2.41-2.18-2.41c0,0,2.02.78,4.75-.23,2.72-1.01,1.25-2.26-1.32-5.29-2.57-3.04-2.8,1.09-2.8,1.09,0,0-1.79-3.27-5.84-3.66-4.05-.39-4.28,2.88-4.28,2.88,0,0-2.18.39-3.35,2.88-1.17,2.49.54,2.49.54,2.49l2.02-1.63s2.86,3.16,3.01,5.18,1.04,8.98,1.04,8.98h0Z"/><path class="cls-1" d="M323.49,132.78c1.12.93,3.22.26,4.68-1.51.64-.77,1.05-1.62,1.22-2.42l1.43-1.51,10.58-10.83,10.26-19.49-1.69-2.06s-2.15-.76-3.96.75c-1.81,1.52-7.87,15.46-7.87,15.46l-11.03,14.06-.85,1c-.75.31-1.51.87-2.15,1.65-1.46,1.76-1.74,3.95-.62,4.88h0Z"/><path class="cls-3" d="M352.3,93.9l-10.1.03s.91,5.54-.07,6.35c-.98.81-.53.23-.53.23,0,0,.26,2.42-.74,3.55-1,1.13-.46,1.15-.46,1.15l6.12,4.77c3.07-2.07,5.77-16.08,5.77-16.08h0Z"/></g></svg>