<?xml version="1.0" encoding="UTF-8"?><svg id="_レイヤー_2" xmlns="http://www.w3.org/2000/svg" viewBox="0 0 491.61 80.5"><defs><style>.cls-1{fill:#f2cce0;stroke-width:0px;}</style></defs><g id="_デザイン"><path class="cls-1" d="M477.73,40.1c-2.17-.04-4.34-.09-6.49-.13-39.72.15-78.99,5.05-122.97,6.8-30.86.51-65.75,5-96.37,7.89,72.8-4.65,149.02-12.68,219.54-11.02-6.79,3.47-15,6.5-24.81,7.43-23.71,1.12-47.08,2.54-70.23,4.19-.11-1.2-.33-3.54-.45-4.72-65.3,9.76-127.46,6.02-192.54,18.16,2.39.41,1.1,1.51.69,2.33-.16.02-.32.03-.46.05.15-.02.3-.03.46-.05-.37.72-.06,1.21,4.03.83-4.08.38-4.4-.11-4.03-.83,64.46-7.25,124.95-11.79,189.65-15.57-50.17,3.61-99.33,8.27-148.78,13.23-24.76,2.51-49.6,5.03-74.67,7.57-25.32,2.46-51.59,4.58-78.96,4.21-2.33-.03-5.84-.13-9.35-.23-3.52-.16-7.04-.27-9.4-.45l-3.49-.86-1.74-.41-1.97-.44c-2.74-.61-5.61-1.29-8.64-2.13-3.05-.86-6.28-1.89-9.71-3.3-1.7-.68-3.5-1.53-5.29-2.46-.92-.5-1.84-1.01-2.74-1.54l-2.48-1.62c-3.22-2.27-6.17-4.92-8.65-7.94l-.94-1.12-.84-1.2c-.55-.8-1.13-1.59-1.62-2.42-.99-1.66-1.8-3.36-2.47-5.02C.69,45.93.15,42.65.02,39.54c-.12-3.1.26-6.13.91-8.62,1.47.89,3.7.05,6.18-.93,1.24-.48,2.55-.99,3.79-1.39,1.25-.39,2.43-.67,3.39-.76.96-.09,1.7.03,2.06.5.37.46.37,1.3.11,2.79-.22,1.49-.82,3.64-.73,6.86.01.8.13,1.67.29,2.59.21.92.48,1.9.91,2.9.42,1.01,1.06,1.98,1.68,3.04.71.99,1.45,2.05,2.38,3.04.77-.91,2.32-2.74,3.09-3.65-1.38-1.96-2.38-4.1-2.68-6.33-.14-1.11-.09-2.25.14-3.34.21-1.08.54-2.1.97-3.06.87-1.91,2.05-3.54,3.33-4.86,1.27-1.33,2.62-2.37,3.96-3.14,1.33-.77,2.64-1.27,3.84-1.53,1.2-.26,2.28-.26,3.17-.13,1.79.29,2.72.89,3.35,1.04.21-.37.48-.62.83-.72.09-.03.18-.04.27-.05.05,0,.1,0,.15,0,.02,0,.05,0,.07,0v-.08c.04-.21.04-.44,0-.63-.07-.41-.35-.52-.44-.33-.09.18,0,.52.24.84.19.41.89.63,1.4.61.07,0,.14-.02.19,0,.07-.03.15,0,.17-.03.02-.07-.09-.1-.01-.12.03,0,.07-.01.09-.01h.04s.11.01.11.01c.49.06,1.64.28,3.19.46.37.05.8.09,1.24.13.42.05.91.08,1.38.12.46.04,1.01.07,1.52.1.64.03,1.28.07,1.92.1,2.66.14,5.33.32,8.06.41,5.43.28,11.02.41,16.7.52,11.36.18,23.16-.05,35.07-.72,11.92-.69,23.96-1.86,35.81-3.53l26.1-3.29c8.73-1.07,17.46-2.08,26.21-2.98,17.49-1.8,35.02-3.15,52.63-3.61,48.47-.97,100.87-7.11,149.44-6.9,17.62-.46,47.92-6.92,57.01-4.18,6.45,1.12,6.94,3.62,6.24,6.54-28.81,2.29-57.5,4.87-85.92,7.02-34.92,1.95-69.85,3.75-104.85,4.66,34.31.05,69.36-1.97,104.85-4.66,28.4-1.58,56.81-3.27,85.23-4.66-.81,2.52-1.56,5.15.38,7.33,0,0,8.75-.82,13.12-1.24,18.07,4.29,14.47,13.03,6.29,19.8-2.12,1.42-4.49,3.02-7.16,4.64Z"/></g></svg>