<?xml version="1.0" encoding="UTF-8"?><svg id="_レイヤー_2" xmlns="http://www.w3.org/2000/svg" viewBox="0 0 292.07 180.15"><defs><style>.cls-1{fill:#40220f;}.cls-1,.cls-2,.cls-3{stroke-width:0px;}.cls-2{fill:#231815;}.cls-3{fill:#e5bfd3;}</style></defs><g id="_デザイン"><path class="cls-3" d="M38.38,109.24s-.06-.04-.09-.06c-.03.02-.06.05-.09.07l.18-.02Z"/><path class="cls-3" d="M291.76,127.26c-.96-1.63-2.4-2.65-3.94-3.44-2.63-1.34-5.49-1.74-8.34-2.07-1.95-.22-3.93-.22-5.89-.3-1.3-.05-2.61-.08-3.7-1.38.33-1.22.68-2.51,1-3.72,1.38-.65,2.81-1.07,3.97-1.93,1.24-.91,2.94.41,4.27-1.53-2.76-2.15-1.39-4.39.09-6.81,1.52.62,2.96.11,3.96-.78,1.41.03,1.88,1.55,3.18,1.16,1.07-.32,2.22-.33,3.51-.5-.14-1.25-.77-1.84-1.66-2.21-.71-.3-1.52-.42-2.15-.85-2.43-1.65-4.86-3.19-7.85-3.25-.62-.01-1.44-.23-1.8-.7-.9-1.17-2.15-.86-3.22-1.22-.73-.24-1.51-.25-2.25-.43-1.65-.4-3.29-.83-4.93-1.29-1.71-.48-3.45-.75-5.09-1.62-.85-.45-2.15.09-3-.37-1.7-.91-3.51-1.09-5.29-1.51-1.31-.31-2.77-.58-3.58-2.21.8-.23,1.45-.37,2.07-.59.75-.26,1.58-.43,2.18-.92.94-.77,1.77-2.09,3.04-1.53,1.48.64,2.22-1.55,3.7-.75.86.46,1.7,0,2.27-1.06.55-1.01,1.36-1.49,2.63-1.04,1.56.55,1.78.43,2.19-1.25.33-1.36,1-1.89,2.13-2.07,1.01-.16,2.02-.32,3.11-.49-.31-.86-.87-1.69-.68-2.02.36-.66,1.08-1.23,1.76-1.48.71-.26,1.69-.38,2.32-.04,1.65.88,3.35.32,5,.51,1.64.18,3.28-.11,4.79,1.02.46.34,1.41.97,2.22-.31-.86-2.11-2.66-3.33-4.45-4.37-2.27-1.31-4.93-1.61-7.13-3.29-1-.77-2.48-.76-3.71-1.21-3.69-1.37-7.2-3.34-11.13-3.93-.62-.09-1.18-.58-1.79-.84-.6-.26-1.21-.51-1.84-.68-2.77-.76-5.54-1.48-8.32-2.22-1.64-.44-3.41-.61-4.89-1.41-1.95-1.06-4.01-1.19-6.05-1.6-1.28-.26-2.62-.41-3.8-.94-2.68-1.21-5.52-1.55-8.33-2.08-1.58-.3-3.03-.81-4.2-2.13-.81-.92-1.68-1.73-3.09-1.55-.55.07-1.2-.76-1.85-1.21,1.49-1.68,2.88.49,4.4-.35.08-1.6.16-3.21.25-4.86,1.36.36,1.39.36,2.31-.39-.75-.94-1.49-1.87-2.29-2.87.46-.57.78-.96,1.12-1.38,1.02.47,1.93,1.04,2.91,1.31,1.44.39,1.73-1.59,2.89-1.91.32-.09.57-.46,1.08-.88-.59-1.01-1.13-1.95-1.7-2.88-.36-.58-1.06-1.13-1.07-1.71-.08-3.6-3.04-4.3-4.93-6.07-2.48.22-4.48-1.58-6.8-1.96-2.73-.44-5.11-2.16-7.88-2.4-.37-.03-.79-.24-1.06-.51-.96-.97-2.1-1-3.31-1.06-.75-.04-1.5-.41-2.22-.71-.85-.35-1.66-.83-2.52-1.16-3.44-1.33-7.11-1.71-10.46-3.52-1.67-.9-3.71-.95-5.53-1.89-1.86-.96-3.99-1.29-6.01-1.91-1.12-.34-2.27-.63-3.35-1.09-2.8-1.21-5.56-2.52-8.34-3.77-.48-.21-.99-.49-1.48-.49-2.78-.01-5.36-1.15-8.01-1.8-3.79-.92-7.58-1.81-11.37-2.75-4.31-1.07-8.72-1.63-13.1-2.33-1.68-.27-3.39-.42-5.08-.37-1.7.06-3.18-1.11-5.02-.59-1.54.43-3.21-.33-4.9-.28-4.81.14-9.61-.5-14.44-.15-3.86.28-7.74.47-11.6.64-4.54.19-8.64,1.61-12.61,3.81-2.33,1.29-4.51,3.2-6.97,3.84-2.8.72-4.49,2.56-6.46,4.5-2.78,2.75-2.83,6.38-3.02,9.79-.14,2.67.94,5.41.94,8.14q2.17.42,3.01,1.95c1.87.65,3.57,1.62,5.33,1.78,3.64.33,7.11,1.95,10.85,1.54.99-.11,2.03.55,2.11,2.53-1.89-.03-3.17,1.27-4.45,2.72-.68.78-1.87,1.6-2.74,1.5-2.22-.26-3.98,1.21-6.05,1.41-1.9.18-3.56,1.36-5.6,1.35-1.58,0-3.41.65-4.69,1.67-1.54,1.22-3.37.5-4.83,1.54-1.54,1.1-3.68.55-5.07,2.12-1.85.04-3.42,1.12-5.12,1.64-3.25.99-6.63,1.48-9.97,2.14-1.65.33-3.54.15-4.92.99-2.9,1.77-6.38,2.48-8.5,5.69-.77-.53-1.3-.92-1.86-1.27-.05-.03-.09-.05-.13-.08-3.43,2.84-6.98,5.54-10.21,8.66-2.17,2.68-4.35,5.35-6.52,8.03-3.15,5.59-2.73,11-.34,15.76,1.46,1.41,2.91,2.85,4.39,4.25.57.54,1.66.62,1.98,1.24,1.48,2.86,4.08,4.43,6.08,6.68.08.09.17.18.26.27,2.72,1.54,5.53,2.68,8.15,3.36.15-.12.29-.26.44-.37.73-.58,1.44-1.29,2.27-1.59,1.6-.59,3.25-.96,4.7-2.04.47-.35,1.36-.52,1.84-.28,1.01.51,1.98.64,3.05.59,1.12-.05,2.24,0,3.36.02-.57,1.11-1.14,2.23-1.79,3.5.66.43,1.16.75,1.66,1.07.92-.73,1.8-1.62,3.09-1.13.74.28,1.29.04,1.74-.55.48-.63.92-1.31,1.51-2.14-1.43-1.52-2.73-2.9-3.93-4.17.79-.97,1.56-1.73,2.11-2.66.53-.9.83-1.96,1.22-2.91q2.68.53,2.73,3.01c-1.24.35-2.53.56-3.69,1.09-.69.31-1.27,1.09-.34,2.19,1.16-.62,2.39-.72,3.62.15.3.21.93-.1,1.4-.21.49-.11,1.16-.56,1.41-.36,1.46,1.16,2.88.28,4.15-.16,1.87-.63,3.57-.6,5.24.14.97,2.79-.38,4.41-2.17,5.83q-3.04,0-4.38,2.91c-.74.27-1.47.71-2.23.76-.71.05-1.44-.31-2.12-.48-1.3,1.45-2.49,2.77-3.62,4.03-1.02-.34-1.86-.63-2.59-.88-2.36,1.99.23,2.94.6,4.41-1.79,3.37-1.98,7.55-4.36,10.7-.17.22.03.76.02,1.15,0,.7.07,1.42-.08,2.09-.44,2,.05,3.89.23,5.98,1.53-.1,2.87,0,4.12-.32,1.5-.39,2.91-.2,4.13.56,1.2.74,2.51.47,3.66.92,1.35.53,2.57,1.19,4.11.86.89-.19,1.33.97.96,2.15-.12.37-.26.73-.41,1.16,1.69-.11,3.23-.22,4.25-1.74.74.93,1.33,1.69,2.06,2.61-1.64.98-3.03,2.31-4.87,2.65-2.44.45-4.73,1.33-6.95,2.52-.54.29-1.19.34-1.8.44-.51.09-1.1-.06-1.53.18-.41.23-.99.9-.91,1.22.14.6.68,1.5,1.09,1.52.99.05,2.03-.23,3-.56.86-.29,1.62-.98,2.49-1.21,1.12-.31,2.49-.83,3.42-.4,1.45.67,2.36-1.24,3.62-.47l.09.03c.68,1.04,1.37,2.06,2.03,3.11.46.74.18,1.77-.52,2.23-1.07.71-2.23.56-3.4.61-1.24.05-1.96,1.54-1.09,2.42,1.26,1.27,1.21,3.06,1.91,4.62,1.92-.04,3.73-.07,5.53-.1.32.7.6,1.3.96,2.11,1.45-.65,2.87-1.29,4.41-1.98,1.22.04,1.94,1.21,2.48,2.27.8,1.55,1.59,2.86,3.33,3.29.6.15,1.05,1.02,1.7,1.7-.65.28-.99.5-1.36.57-.51.1-1.04.14-1.55.1-2.08-.2-4.15-.48-6.23-.63-.4-.03-.82.36-1.37.62,1.24,1.59,2.54,1.84,4.05,1.5.48-.11,1.01.06,1.47.09.47.85.87,1.56,1.36,2.45,1.02-.06,2.05-.22,3.07-.15.95.07,1.34.73,1.07,1.8-.06.25.03.55.09,1.18,2.45-.5,4.49.71,6.26,2.21,1.13-.25,1.95-1.58,3.02-.4,2.39.09,4.81-.36,7.17.43.08.03.24-.13.31-.23,1.13-1.61,2.43.15,3.56-.18q3.01-3.07,8.74-3.01c.32,0,.78-.32.92-.63.21-.46.22-1.04.27-1.58.1-.93.59-1.77,1.34-1.79,2.16-.05,4.23-.4,6.34-.91,1.59-.39,3.35.1,4.9.19.95-.83,1.76-1.54,2.73-2.39,1.37.89,2.66,1.74,4,2.61,1.56-1.27,2.61-3.18,4.7-3.01,1.64-2.13,3.35.16,5.03-.08,1.02-.15,2.06-.16,3.08-.31,1.6-.24,3.1-1.5,4.84-.44.29.18,1.04-.19,1.37-.54.78-.81,1.46-.87,2.45-.39.82.4,1.57-.23,1.69-1.17.09-.65-.02-1.34-.05-2.23,3.31.06,6.39.11,9.19-.89.27-.78.46-1.31.65-1.84,1.75.38,2.15,1.72,1.89,3.24-.28,1.59-.32,3.07.23,4.58,2.69-.64.99-2.87,1.59-4.49,1.9,1.43,3.78.34,5.67.3.05-1.28-.8-2.18-.08-3.25.41-.17.89-.38,1.37-.58-.05-.57-.12-1.14-.15-1.71-.04-.72.4-1.14.94-1.06.44.06,1.07.43,1.21.84.71,2.02-.15,3.89-.7,5.66.49,1,1.07,1.49,1.97,1.02.35-.18.61-.57.96-.74,1.24-.58,2.47-.91,3.6.34.21.23.7.17,1.23.28.21-.57.5-1.05.56-1.57.08-.69-.05-1.41-.02-2.12.02-.52.15-1.03.21-1.44-.76-.51-1.3-.87-1.81-1.21.08-1.17.17-2.16.2-3.16.06-1.61.04-1.65,1.86-2.14.58-.16.93-.38,1.02-1.05.14-1.06.79-1.47,1.68-1.37,1.26.14,1.75.99,1.61,2.28.32.86.64,1.72,1.28,3.42-2.14-.76-2.98.64-4.11,1.47-.36.26-.55,3.39-.36,4.83.87-.08,1.75-.15,2.72-.24.39.5.77,1.09,1.23,1.58.78.83.9.78,2.3-.59-.48-1.33-.99-2.72-1.53-4.21.54-.24,1-.45,1.61-.73-.31-1.34-.39-2.69.63-3.87,1.09-1.26,2.55.16,3.65-.64.09-.62-.02-1.43.28-1.67,1.5-1.25,2.55-3.29,4.91-3.14.97.06,1.98-.63,2.96-1.02.22-.09.39-.33.6-.51.06-.76.11-1.53.18-2.44,1.83,1.18,2.11,1.66,1.57,3.01-.28.71-.82,1.3-1.18,1.83,1.51,1.35,2.88,2.64,4.33,3.84.44.36,1.08.42,1.81.69.29-1.89.33-3.39-.28-4.84,1.5-1.9,1.54-1.73,3.86-2.35,1.48-.4,2.03.77,3.35,1.4-.96.64-1.64,1.09-2.34,1.55.54,1.35,1.08,2.68,1.92,4.77,1.14-3.36,4.14-2.44,5.59-4.47.14-.2.72-.08,1.08-.04.71.09,1.41.23,2.12.35-.02.31.02.59-.06.84-.08.27-.23.52-.39.74-1.15,1.45-1.17,1.49.03,3.06.51-.54.98-1.25,1.58-1.46.83-.29,1.81-.28,2.69-.12,1.19.21,1.9-.11,2.56-1.29.54-.96,1.24-.7,1.6.44.3.94.92.83,1.53.32.39-.33.75-.69,1.22-1.13.7.87,1.26,1.57,1.93,2.4.19-1.3.33-2.32.51-3.53.85,1.11,1.41,2.12,2.22,2.8.65.55,1.79.47,2.36,1.07,1.23,1.29,1.79-.94,2.84-.41.33.52.68,1.09,1.06,1.64.06.09.24.08.17.06.74-.91,1.5-1.69,2.08-2.6.62-.98,1.06-2.09,1.77-3.53.54,1.76,1.18,2.81.25,4.31-.44.71-.47,2.25.97,3.07,1.38-1.3,2.8-2.64,4.24-4q-2.35-2.09.14-3.64c.22-.14.5-.22.65-.42.45-.59.33-1.8,1.46-1.66,1.55.2.58,1.6.91,2.38.42,1.02.91,1.18,2.08.51.22-.13.47-.19.71-.28,2.66,1.94,2.93,1.95,2.9,3.14-.06,2.37,1.48,3.45,2.9,5.42.21-1.65.32-2.71.5-3.77.19-1.1.45-2.19.72-3.46-.58-.29-1.18-.53-1.71-.88-.42-.28-.76-.71-1.36-1.3,1.73.03,3.03.05,4.25.08.58.87,1.09,1.63,1.87,2.8.25-1.68-.32-3,.65-3.96.93-.92,1.48-1.93,1.14-3.44-.09-.4.6-1.3,1.1-1.5,1.28-.51,1.23-2.48,2.68-2.73.19-.03.49-.48.45-.65-.44-1.8,1.12-3.54.07-5.37.7-.41,1.64-.61,1.97-1.21,1.04-1.88,2.89-2.18,4.32-2.02,1.76.19,3.23-.69,4.9-.76,1.64-.06,3.06-1.91,4.85-2.45.75-.22.84-1.37.35-2.2ZM41.26,105.18c-1.03,1.44-1.15,1.49-1.94.68-.33-.34-.54-.82-.79-1.26.99-.29,1.92-.21,2.73.58ZM51.04,123.16c-.09-.03-.19-.06-.29-.08.11-.23.2-.49.36-.69.03-.04.28.1.43.16-.16.2-.33.4-.49.61ZM61.46,104.99c-.24.05-.78-.35-.82-.6-.05-.33.18-.87.45-1.05,1.44-1.02,2.95-1.55,4.79-.26-1.33,1.68-2.95,1.6-4.42,1.92ZM76.18,99.22c-2.75,1.42-5.34,3.53-8.68,2.61-.1-.03-.16-.21-.62-.84,1.01.1,1.66.16,2.21.22.26-.7.66-.87,1.92-1.41.43-.19.72-.75,1.11-1.18.45.21.92.44,1.57.74.5-.69,1.04-1.42,1.57-2.16,1.27.82,1.64,1.65.93,2.02ZM160.02,154.77c-.44.05-.95-.33-1.37-.62-.18-.12-.36-.56-.29-.73.14-.33.43-.79.69-.82.76-.07,1.53.05,2.3.08.53.02.93-1.17,1.74,0-.79,1.07-1.74,1.94-3.07,2.08ZM169.49,151.61c-1.21,2.5-.5,6.01-3.38,7.69-.32-.93-.63-1.85-1.01-2.94.37-.82.71-1.73,1.17-2.56.48-.85,1.05-1.6.88-2.72-.13-.83.26-1.41,1.08-1.31.79.1,1.58,1.15,1.26,1.83ZM173.28,158.46c-.18.08-.45-.07-.68-.13.03-.23.06-.46.09-.69.3.07.6.14.91.21-.1.21-.17.54-.32.61ZM174.38,161.7c.82-1.11,1.14-2.33,2.55-1.97.1.02.2.18.24.3.24.68.06.8-2.79,1.67ZM177.47,153.46c-.28.11-.61.05-1.14.07.17-.52.28-.84.39-1.15.3.12.64.2.89.4.08.06-.02.64-.14.69Z"/><path class="cls-3" d="M140.99,159.01c-.04.11-.05.25-.12.32-.06.06-.19.04-.29.06.14-.13.27-.25.41-.38Z"/><path class="cls-3" d="M221.75,156.7s-.05-.07-.08-.1c-.04.04-.07.08-.11.12h.19Z"/><path class="cls-3" d="M206.75,158.18c-.78,1.57-2.37.8-3.36,1.75-.07.7-.05,1.42-.23,2.08-.2.77-.55,1.5-.85,2.25.51.38,1.02.75,1.47,1.08.94-.5,1.73-.92,2.47-1.32.55.72.94,1.23,1.3,1.7,1.52-.42,2.91-.73,4.26-1.2,1.19-.41,2.24-2.24,1.86-3.35-.59-1.74-1.34-3.47-3.07-4.2-.85-.36-1.54-.03-1.49,1.19,0,0,0,0,0,0-.83.13-1.87-.99-2.37.02ZM208.79,163.07c-.84-2.25-.85-2.29.39-4.8.87,1.68.87,3.29-.39,4.8Z"/><path class="cls-3" d="M202.28,164.33s.02-.05.03-.07c0,0,0,0,0,0l-.03.07Z"/><path class="cls-3" d="M190.78,159.28c-1.14,3.35,1.38,5.71.95,8.85,1.34-.93,1.86-2.07,2.58-3.06.72-.99,2.07-1.45,3.36-2.28.69-2.05-.84-3.87-1.19-5.89-2.93-1.3-3.95,1.71-5.7,2.37Z"/><path class="cls-3" d="M216.61,165.43c1.95-.03,3.81-.45,5.46.02,2.04.58,3.88.34,5.57-.64.99-.57,1.61-.55,2.47.02.2.13.67-.21,1.01-.33-.2-.46-.33-1.27-.61-1.34-2.8-.66-5.65-2.43-8.35.2-.53-.72-.1-2.4-1.75-1.61-.4.19-1.12-.43-1.69-.67-.56-.23-1.11-.45-1.66-.68q-1.02,2.68-.46,5.02Z"/><path class="cls-3" d="M33.99,108.15c-1.36.23-2.67,1.01-4.12.25-.19-.1-.82.82-1.29,1.32,1.32,2.06,2.84,3.32,4.9,3.67,1.18.2,2.07-.24,2.38-1.63-.58-.23-1.15-.45-1.79-.7.51-.97.89-1.7,1.42-2.71-.72-.11-1.13-.27-1.5-.21Z"/><path class="cls-3" d="M255.69,157.4c-1.81.08-2.86,1.05-3.77,2.36-.47.67-1.04,1.34-1.71,1.73-.48.28-1.19.1-2.42.15,1.1.78,1.6,1.42,2.16,1.48,1.77.18,3.59.41,5.32.13,1.53-.26,3.01-1.13,3.32-3.33-.87.73-1.75,1.46-2.62,2.19,0,0-.01,0-.02-.01.11-.95.31-1.92.29-2.89-.01-.62-.37-1.24-.55-1.79ZM253.88,161.4c-.54.19-1.14.19-1.76.28.02-1.36.58-1.82,1.47-1.8,1.3.04,2.12.75,2.35,2.18-.6-.51-1.19-.96-2.05-.66Z"/><path class="cls-3" d="M237.39,164.49c-.86-1.61-2.13-1.37-3.62-1.06.3,3.7,3.09,2.55,4.78,3.37,1.47.72,2.82.44,3.91-.92.07-.08.04-.27.08-.66-1.06-.58-2.07-1.54-3.44-.51-.64.47-1.32.5-1.7-.22Z"/><path class="cls-3" d="M267.8,165.51c1.02.37,2.25.09,3.38.11-2.06-2.12-4.29-2.51-6.64-1.94-.55.13-1.04.54-1.65.87,1.53,2.12,3.34.4,4.9.96Z"/><path class="cls-3" d="M229.5,159.05c-.24.04-.58.63-.55.92.03.31.43.81.69.82,1.76.08,3.53.52,5.29-.19,1.02-.41.99-1.12.74-2.53-2.12.32-4.15.6-6.17.98Z"/><path class="cls-3" d="M220.01,159.16c1.38,1.37,2.87,1.19,4.33.37.37-.21.71-.9.7-1.36-.01-.63-.55-.87-1.13-.63-.95.4-1.69.15-2.26-.7-.59.76-1.81,1-1.64,2.32Z"/><path class="cls-3" d="M221.75,156.7s-.19.01-.19.01c.03.04.06.08.08.12.03-.04.08-.08.11-.13Z"/><path class="cls-3" d="M276.07,146.94c.28-.19.33-1.03.25-1.54-.13-.81-.45-1.57-.78-2.67-.81.89-1.49,1.5-2.02,2.24-.61.85-.22,2.05.79,2.29.56.13,1.3,0,1.77-.32Z"/><path class="cls-3" d="M247.35,165.36c-.59,1.01-.07,2.25.89,2.01,1.17-.3,2.27-.17,3.42-.1.37.02.78-.74,1.14-1.11-1.22-1.74-3.35.23-4.33-1.99-.58.61-.93.85-1.13,1.2Z"/><path class="cls-3" d="M37.05,118.94c.16-1.04-.06-1.97-.92-2.49-.49-.29-1.14-.28-1.78-.43q.16,2.32,2.7,2.91Z"/><path class="cls-3" d="M264.89,168.56c.13-.07.13-.43.2-.71-.87-1.01-1.82-.41-3.11-.08,1.41,1.54,1.41,1.56,2.91.78Z"/><path class="cls-3" d="M238.41,162.25c.67.46,1.32.19,1.72-.39.23-.34.12-.96.18-1.75-.9.11-1.56.04-2.09.29-.52.25-.36,1.48.18,1.85Z"/><path class="cls-3" d="M134.41,171.12c-.19-.44-.94-.6-1.7-1.03-.05,1.22-.08,2.04-.12,3.25,1.66-.89,2.15-1.46,1.82-2.22Z"/><path class="cls-3" d="M284.75,144.14c.12.7.24,1.43.5,2.95.66-1.21,1.23-1.77,1.17-2.24-.09-.66-.72-1.06-1.66-.71Z"/><path class="cls-3" d="M282.39,150.26c-.83.57-1.27.77-1.56,1.11-.39.45-.49,1.13.08,1.42.39.2,1.29.15,1.37-.07.21-.54.09-1.24.11-2.46Z"/><path class="cls-3" d="M200.41,153.59c-.71.68-2.27-.13-2.49,1.7,1.26.12,2.24-.03,2.49-1.7Z"/><path class="cls-3" d="M154.5,166.24c-.22.1-.6.15-.64.3-.08.35,0,.75.02,1.18.36-.15.78-.23.79-.35.02-.37-.1-.75-.17-1.13Z"/><path class="cls-3" d="M149.45,168.26c-.22.08-.56.09-.63.24-.14.34-.17.75-.18,1.13,0,.05.4.11.85.22-.02-.58-.03-1.09-.04-1.6Z"/><path class="cls-3" d="M218.59,157.6c-.16-.22-.61-.19-.93-.27-.06.37-.26.83-.13,1.1.11.23.59.24,1.09.41,0-.54.14-1.01-.02-1.24Z"/><path class="cls-3" d="M124.05,174.48c.17-.24.05-.74.06-1.12-.37.03-.85-.08-1.06.14-.19.19-.08.74-.1,1.3.47-.12.94-.09,1.11-.32Z"/><path class="cls-3" d="M260.33,157.15c-.59-1.22-.74-1.53-.89-1.84-.27.18-.58.32-.8.56-.06.07.08.52.23.63.28.21.63.3,1.46.66Z"/><path class="cls-3" d="M38.38,109.25s-.18.01-.18.01c.02.08.04.15.06.23.04-.08.08-.16.11-.24Z"/><path class="cls-3" d="M38.12,111.46c.18.02.56-.24.55-.32-.11-.56-.26-1.11-.41-1.65-.24.51-.48,1.01-.67,1.54-.02.07.33.4.53.43Z"/><path class="cls-3" d="M272.83,151.84c.05.06.47-.12.58-.3.19-.28.27-.66.59-1.51-1.11.59-1.39.75-1.68.9.16.31.29.65.51.9Z"/><path class="cls-3" d="M289.29,153.86c.05-.07-.01-.37-.06-.38-.2-.05-.53-.12-.61-.01-.3.41-.52.89-.77,1.35.16.08.32.16.49.24.32-.4.66-.78.96-1.2Z"/><path class="cls-3" d="M170.63,166.46c-.3-.14-.75-.28-.96-.13-.18.13-.12.67-.19,1.3.56-.2.92-.25,1.17-.46.11-.09.07-.67-.02-.72Z"/><path class="cls-3" d="M168.92,168.29c-.16.07-.34.12-.48.22-.03.02.03.32.1.35.17.07.37.06.55.08-.06-.22-.11-.44-.17-.65Z"/><path class="cls-3" d="M195.86,154.32c-.21.06-.42.11-.63.17l.25.52c.18-.13.36-.24.52-.39.02-.01-.09-.2-.14-.3Z"/><path class="cls-3" d="M214.64,157.65c.1.33.16.68.31.98.03.06.38-.07.74-.14-.26-.34-.46-.63-.69-.87-.06-.06-.24.02-.36.03Z"/><path class="cls-3" d="M50.5,152.71c0-.12-.46-.38-.5-.34-.24.24-.42.56-.67.92.38.05.67.18.84.08.18-.1.32-.43.32-.67Z"/><path class="cls-3" d="M290.57,145.1c-.09.03-.17.13-.25.2.12.07.23.14.35.21.04-.1.07-.21.11-.31-.07-.03-.15-.11-.21-.09Z"/><polygon class="cls-3" points="276.51 154.57 276.65 154.76 276.78 154.47 276.51 154.57"/><path class="cls-3" d="M58.15,150.72c.04-.14.08-.29.12-.43-.09.11-.17.22-.26.33.05.03.09.06.14.1Z"/><path class="cls-3" d="M58.27,150.29c.05-.06.09-.12.14-.18,0,0-.09-.03-.08-.02-.02.07-.04.13-.05.2Z"/><path class="cls-3" d="M287.26,164.37c-.03.09-.11.21-.09.27.04.12.15.21.23.32.07-.16.14-.32.2-.47-.11-.04-.23-.08-.34-.12Z"/><path class="cls-3" d="M142.6,171.01c-.11.21-.17.46-.25.7.12-.01.24-.03.37-.04.07-.2.15-.43.23-.66-.12,0-.32-.05-.35,0Z"/><path class="cls-3" d="M227.28,159.02c-.18-.13-.4-.2-.6-.3,0,.13-.01.27-.02.4.21.09.43.19.64.28,0-.13.04-.34-.01-.39Z"/><path class="cls-3" d="M201.66,163.22c.03.19,0,.43.1.57.13.18.34.3.52.44-.02-.26-.02-.51-.12-.7-.08-.16-.33-.21-.51-.31Z"/><path class="cls-3" d="M202.29,164.3s.02-.05.02-.05c0,0-.02-.01-.03-.02,0,.02,0,.05,0,.07Z"/><path class="cls-3" d="M183.92,153.94s-.08-.01-.13-.02c.04.06.09.11.13.17,0,0,0,.01,0,.01,0-.05,0-.09.01-.13,0-.01,0-.02-.01-.04h0Z"/><path class="cls-3" d="M182.93,153.12c0,.23-.04.62.04.65.26.1.55.12.83.16-.17-.24-.34-.48-.53-.69-.07-.08-.22-.08-.33-.11Z"/><polygon class="cls-3" points="177.31 167.27 177.1 167.45 177.4 167.61 177.31 167.27"/><path class="cls-2" d="M93.76,78.5c0,5.45.65,6.38,4.79,6.38v1.58h-11.78v-1.58c4.14,0,4.74-.93,4.74-6.38v-16.8c0-5.45-.6-6.38-4.74-6.38v-1.58h10.43l9.08,23.67,9.08-23.67h10.08v1.58c-4.19,0-4.79.93-4.79,6.38v16.8c0,5.45.6,6.38,4.79,6.38v1.58h-15.47v-1.58c4.14,0,4.79-.93,4.79-6.38v-17.13l-9.93,26.02h-1.1l-9.98-26.02v17.13Z"/><path class="cls-2" d="M144.43,87.07c-2.25,0-3.49-1.2-3.79-3.16-2.8,2.4-4.04,3.27-6.29,3.27-2.39,0-4.79-1.69-4.79-4.58,0-4.64,4.54-6.65,11.08-7.75v-.05c0-4.04-1.2-5.18-3.24-5.18-1.15,0-2.69.71-2.69,2.13s-.9,2.35-2,2.35-2-.87-2-2.35c0-2.73,3.64-4.36,7.29-4.36,5.54,0,7.88,2.24,7.88,7.42v7.36c0,1.36.4,2.07,1.05,2.07.6,0,1.1-.38,1.5-.65l.7,1.47c-1.45,1.2-3.49,2.02-4.69,2.02ZM140.63,77.03c-3.84,1.09-6.14,2.18-6.14,4.91,0,1.64.95,2.18,1.95,2.18.85,0,2.49-.82,4.19-2.45v-4.64Z"/><path class="cls-2" d="M159.85,78.94c0,4.8.65,5.95,3.14,5.95v1.58h-12.78v-1.58c3.34,0,3.99-.93,3.99-6.38v-16.36c0-5.45-.65-6.38-3.99-6.38v-1.58l9.63-1.36v23.29l4.29-3.38c1.7-1.31.9-2.84-1.55-2.84v-1.58h10.43v1.58c-1.65,0-2.99.38-4.79,1.96l-3.79,3.16,5.84,7.69c1.4,1.8,2.6,2.18,3.79,2.18v1.58h-7.09l-7.14-9.6v2.07Z"/><path class="cls-2" d="M175.28,86.47v-1.58c3.34,0,3.94-.93,3.94-6.38v-1.8c0-5.45-.6-6.38-3.94-6.38v-1.58l9.58-1.36v11.13c0,5.45.6,6.38,3.94,6.38v1.58h-13.52ZM182.02,61.76c-1.75,0-3.09-1.64-3.09-3.55s1.35-3.49,3.09-3.49,3.19,1.58,3.19,3.49-1.45,3.55-3.19,3.55Z"/><path class="cls-2" d="M100.35,107.8c0-5.45-.6-6.38-3.94-6.38v-1.58l9.58-1.36v25.52c0,5.45.45,6.33,3.44,6.33v1.36l-8.13,1.26c-.15-.27-.4-1.04-.55-1.86-1.15,1.2-2.84,1.96-4.64,1.96-5.64,0-8.93-4.53-8.93-10.04s3.29-9.98,8.93-9.98c1.6,0,3.19.66,4.24,1.58v-6.82ZM100.35,120.4c0-2.84-1.75-4.8-3.49-4.8-2.55,0-3.59,3.27-3.59,7.42s1.05,7.47,3.59,7.47c1.75,0,3.49-2.02,3.49-4.8v-5.29Z"/><path class="cls-2" d="M123.51,130.11c2.25.16,4.39-.76,5.94-2.24l.85,1.58c-1.75,2.02-4.79,3.6-7.59,3.6-6.49,0-10.08-4.53-10.08-10.04,0-5.78,4.39-9.98,9.63-9.98s8.28,5.24,7.18,9h-10.83c-.4,5.56,1.95,7.85,4.89,8.07ZM125.61,119.64c.15-2.24-.9-3.98-3.09-3.98-1.8,0-3.04,1.36-3.54,3.98h6.64Z"/><path class="cls-2" d="M142.18,133.05c-2.69,0-4.69-1.69-5.39-1.69-.55,0-.75.33-.75,1.69h-1.45v-7.96h1.45c0,2.46,2.79,5.67,6.04,5.67,1.65,0,2.65-.87,2.65-2.13s-1.15-2.13-3.19-3.22l-2.8-1.36c-2.59-1.31-3.74-3.55-3.74-5.56,0-4.09,3.34-5.45,5.89-5.45s3.84.98,4.89.98c.35,0,.5-.27.5-.98h1.45v6.33h-1.45c0-2.29-2.49-4.15-4.59-4.15-1.35,0-2.45.71-2.45,1.86,0,1.25,1,1.8,3.44,3l2.39,1.25c2.55,1.26,3.89,3.44,3.89,5.56,0,4.36-3.54,6.16-6.79,6.16Z"/><path class="cls-2" d="M152.81,132.12v-1.58c3.34,0,3.94-.93,3.94-6.38v-1.8c0-5.45-.6-6.38-3.94-6.38v-1.58l9.58-1.36v11.13c0,5.45.6,6.38,3.94,6.38v1.58h-13.52ZM159.55,107.42c-1.75,0-3.09-1.64-3.09-3.55s1.35-3.49,3.09-3.49,3.19,1.58,3.19,3.49-1.45,3.55-3.19,3.55Z"/><path class="cls-2" d="M178.12,131.2c6.29.76,8.48,4.58,8.48,7.69,0,4.8-4.29,7.8-9.53,7.8-9.08,0-12.03-6.55-5.79-9.93l.95.6c-4.24,4.96,1.05,6.98,4.34,6.98,3.49,0,5.94-1.47,5.94-3.71,0-1.86-1.2-2.94-7.44-3.71-4.24-.49-6.24-2.18-6.24-5.45,0-1.96,1.75-3.87,4.34-4.74-2.15-1.04-3.74-3.49-3.74-6.27,0-4.09,3.39-7.42,7.43-7.42,2,0,3.79.76,5.19,2.07.85-1.2,2.65-2.07,3.69-2.07,4.79,0,4.34,6.27,1.45,5.51-1.89-.49-.9-2.95-2.55-2.95-.35,0-1,.27-1.55.87.95,1.25,1.2,2.34,1.2,3.98,0,3.71-2.8,7.03-6.89,7.42-2.45.22-4.59.27-4.59,1.8,0,1.09,1.8,1.15,5.29,1.53ZM176.87,115.27c-1.9,0-2.8,2.24-2.8,5.18s.9,5.18,2.8,5.18,2.8-2.29,2.8-5.18-.85-5.18-2.8-5.18Z"/><path class="cls-2" d="M206.32,113.03c4.49,0,7.74,3.49,7.74,8.13v3c0,5.45.65,6.38,3.94,6.38v1.58h-11.53v-1.58c1.25,0,1.95-.93,1.95-6.38v-2.29c0-3.55-.8-5.78-3.59-5.78-1.99,0-4.59,1.74-4.59,5.4v2.67c0,5.45.55,6.38,3.89,6.38v1.58h-13.48v-1.58c3.34,0,3.94-.93,3.94-6.38v-1.8c0-5.45-.6-6.38-3.94-6.38v-1.58l8.73-1.36c.25.55.6,1.96.7,3.11,1.35-1.8,3.44-3.11,6.24-3.11Z"/><path class="cls-2" d="M228.63,129.07c0,1.96-1.4,3.49-3.19,3.49s-3.14-1.53-3.14-3.49,1.35-3.49,3.14-3.49,3.19,1.53,3.19,3.49Z"/><path class="cls-1" d="M93.76,78.5c0,5.45.65,6.38,4.79,6.38v1.58h-11.78v-1.58c4.14,0,4.74-.93,4.74-6.38v-16.8c0-5.45-.6-6.38-4.74-6.38v-1.58h10.43l9.08,23.67,9.08-23.67h10.08v1.58c-4.19,0-4.79.93-4.79,6.38v16.8c0,5.45.6,6.38,4.79,6.38v1.58h-15.47v-1.58c4.14,0,4.79-.93,4.79-6.38v-17.13l-9.93,26.02h-1.1l-9.98-26.02v17.13Z"/><path class="cls-1" d="M144.43,87.07c-2.25,0-3.49-1.2-3.79-3.16-2.8,2.4-4.04,3.27-6.29,3.27-2.39,0-4.79-1.69-4.79-4.58,0-4.64,4.54-6.65,11.08-7.75v-.05c0-4.04-1.2-5.18-3.24-5.18-1.15,0-2.69.71-2.69,2.13s-.9,2.35-2,2.35-2-.87-2-2.35c0-2.73,3.64-4.36,7.29-4.36,5.54,0,7.88,2.24,7.88,7.42v7.36c0,1.36.4,2.07,1.05,2.07.6,0,1.1-.38,1.5-.65l.7,1.47c-1.45,1.2-3.49,2.02-4.69,2.02ZM140.63,77.03c-3.84,1.09-6.14,2.18-6.14,4.91,0,1.64.95,2.18,1.95,2.18.85,0,2.49-.82,4.19-2.45v-4.64Z"/><path class="cls-1" d="M159.85,78.94c0,4.8.65,5.95,3.14,5.95v1.58h-12.78v-1.58c3.34,0,3.99-.93,3.99-6.38v-16.36c0-5.45-.65-6.38-3.99-6.38v-1.58l9.63-1.36v23.29l4.29-3.38c1.7-1.31.9-2.84-1.55-2.84v-1.58h10.43v1.58c-1.65,0-2.99.38-4.79,1.96l-3.79,3.16,5.84,7.69c1.4,1.8,2.6,2.18,3.79,2.18v1.58h-7.09l-7.14-9.6v2.07Z"/><path class="cls-1" d="M175.28,86.47v-1.58c3.34,0,3.94-.93,3.94-6.38v-1.8c0-5.45-.6-6.38-3.94-6.38v-1.58l9.58-1.36v11.13c0,5.45.6,6.38,3.94,6.38v1.58h-13.52ZM182.02,61.76c-1.75,0-3.09-1.64-3.09-3.55s1.35-3.49,3.09-3.49,3.19,1.58,3.19,3.49-1.45,3.55-3.19,3.55Z"/><path class="cls-1" d="M100.35,107.8c0-5.45-.6-6.38-3.94-6.38v-1.58l9.58-1.36v25.52c0,5.45.45,6.33,3.44,6.33v1.36l-8.13,1.26c-.15-.27-.4-1.04-.55-1.86-1.15,1.2-2.84,1.96-4.64,1.96-5.64,0-8.93-4.53-8.93-10.04s3.29-9.98,8.93-9.98c1.6,0,3.19.66,4.24,1.58v-6.82ZM100.35,120.4c0-2.84-1.75-4.8-3.49-4.8-2.55,0-3.59,3.27-3.59,7.42s1.05,7.47,3.59,7.47c1.75,0,3.49-2.02,3.49-4.8v-5.29Z"/><path class="cls-1" d="M123.51,130.11c2.25.16,4.39-.76,5.94-2.24l.85,1.58c-1.75,2.02-4.79,3.6-7.59,3.6-6.49,0-10.08-4.53-10.08-10.04,0-5.78,4.39-9.98,9.63-9.98s8.28,5.24,7.18,9h-10.83c-.4,5.56,1.95,7.85,4.89,8.07ZM125.61,119.64c.15-2.24-.9-3.98-3.09-3.98-1.8,0-3.04,1.36-3.54,3.98h6.64Z"/><path class="cls-1" d="M142.18,133.05c-2.69,0-4.69-1.69-5.39-1.69-.55,0-.75.33-.75,1.69h-1.45v-7.96h1.45c0,2.46,2.79,5.67,6.04,5.67,1.65,0,2.65-.87,2.65-2.13s-1.15-2.13-3.19-3.22l-2.8-1.36c-2.59-1.31-3.74-3.55-3.74-5.56,0-4.09,3.34-5.45,5.89-5.45s3.84.98,4.89.98c.35,0,.5-.27.5-.98h1.45v6.33h-1.45c0-2.29-2.49-4.15-4.59-4.15-1.35,0-2.45.71-2.45,1.86,0,1.25,1,1.8,3.44,3l2.39,1.25c2.55,1.26,3.89,3.44,3.89,5.56,0,4.36-3.54,6.16-6.79,6.16Z"/><path class="cls-1" d="M152.81,132.12v-1.58c3.34,0,3.94-.93,3.94-6.38v-1.8c0-5.45-.6-6.38-3.94-6.38v-1.58l9.58-1.36v11.13c0,5.45.6,6.38,3.94,6.38v1.58h-13.52ZM159.55,107.42c-1.75,0-3.09-1.64-3.09-3.55s1.35-3.49,3.09-3.49,3.19,1.58,3.19,3.49-1.45,3.55-3.19,3.55Z"/><path class="cls-1" d="M178.12,131.2c6.29.76,8.48,4.58,8.48,7.69,0,4.8-4.29,7.8-9.53,7.8-9.08,0-12.03-6.55-5.79-9.93l.95.6c-4.24,4.96,1.05,6.98,4.34,6.98,3.49,0,5.94-1.47,5.94-3.71,0-1.86-1.2-2.94-7.44-3.71-4.24-.49-6.24-2.18-6.24-5.45,0-1.96,1.75-3.87,4.34-4.74-2.15-1.04-3.74-3.49-3.74-6.27,0-4.09,3.39-7.42,7.43-7.42,2,0,3.79.76,5.19,2.07.85-1.2,2.65-2.07,3.69-2.07,4.79,0,4.34,6.27,1.45,5.51-1.89-.49-.9-2.95-2.55-2.95-.35,0-1,.27-1.55.87.95,1.25,1.2,2.34,1.2,3.98,0,3.71-2.8,7.03-6.89,7.42-2.45.22-4.59.27-4.59,1.8,0,1.09,1.8,1.15,5.29,1.53ZM176.87,115.27c-1.9,0-2.8,2.24-2.8,5.18s.9,5.18,2.8,5.18,2.8-2.29,2.8-5.18-.85-5.18-2.8-5.18Z"/><path class="cls-1" d="M206.32,113.03c4.49,0,7.74,3.49,7.74,8.13v3c0,5.45.65,6.38,3.94,6.38v1.58h-11.53v-1.58c1.25,0,1.95-.93,1.95-6.38v-2.29c0-3.55-.8-5.78-3.59-5.78-1.99,0-4.59,1.74-4.59,5.4v2.67c0,5.45.55,6.38,3.89,6.38v1.58h-13.48v-1.58c3.34,0,3.94-.93,3.94-6.38v-1.8c0-5.45-.6-6.38-3.94-6.38v-1.58l8.73-1.36c.25.55.6,1.96.7,3.11,1.35-1.8,3.44-3.11,6.24-3.11Z"/><path class="cls-1" d="M228.63,129.07c0,1.96-1.4,3.49-3.19,3.49s-3.14-1.53-3.14-3.49,1.35-3.49,3.14-3.49,3.19,1.53,3.19,3.49Z"/><polygon class="cls-1" points="195.91 66.8 213.26 85.77 211.52 87.67 194.17 68.71 195.91 66.8"/><polygon class="cls-1" points="194.17 85.77 211.52 66.8 213.26 68.71 195.91 87.67 194.17 85.77"/></g></svg>