<?xml version="1.0" encoding="UTF-8"?><svg id="_レイヤー_2" xmlns="http://www.w3.org/2000/svg" viewBox="0 0 538.71 218.35"><defs><style>.cls-1{stroke-width:.5px;}.cls-1,.cls-2{stroke:#040000;}.cls-1,.cls-2,.cls-3{fill:none;stroke-linecap:round;stroke-linejoin:round;}.cls-2{stroke-width:.58px;}.cls-4{fill:#040000;stroke-width:0px;}.cls-3{stroke:#000;stroke-width:.66px;}</style></defs><g id="_イラスト"><path class="cls-2" d="M270.67,205.34s-.13.09-.35.23c-.82.53-2.85,1.73-3.53,1.22-.87-.65,1.01-4.91,1.01-4.91,2.4-3.43,7.7-9.01,7.7-9.01l9.96-11.95"/><path class="cls-2" d="M289.09,169.06c.02-.07.04-.14.07-.22,2.63-8.38,8.24-25.41,9.79-32.93,2.02-9.81,12.02-23.05,15.35-24.96,5.52-3.17,2.09,31.45.95,16.84-.45-5.85.56-17.32,4.71-21.66,4.12-4.3,12.83-13.22,16.9-16.41,5.85-4.57,3.03,10.48,2.47,10.42-1.49-.15.76-11.51,3.3-14.49,1.1-1.3,2.6-3.08,3.79-4.38,4.92-5.39,1.04,9.68.75,9.73-1.28.24,1.04-11.29,2.2-12.8,1.16-1.51,2.85-3.34,4.84-4.38,1.99-1.05,1.1,11.13-.16,11.25-1.26.12.39-9.85,1.43-11.37,1.03-1.52,2.63-4.86,7.13-8.41,4.5-3.54.82,18.74-.18,18.77-1,.02,2.28-18.42,2.85-19.12.57-.69,1.93-4.18,4.07-5.47,2.14-1.28.11,20.8-1.57,21.25-1.54.42,2.91-20.67,5.26-24.77.73-1.28,1.96-3.01,4.37-4.3,5.25-2.79-3.78,30.05-1.28,14.1.88-5.61,2.87-14.66,4.4-16.58,1.31-1.63,3.97-4.62,6.62-5.78,4.37-1.91-5.29,23.79-2.16,11.21,1.05-4.21,3.03-10.77,4.45-12.08,2.79-2.56,12.28-11.21,14.79-12.33,4.86-2.17-1.46,24.03-.62,9.94.26-4.38,1.6-10.92,4.34-13.27,1.34-1.14,3.14-2.53,4.86-3.26,6.96-2.95-1.76,17.99-2.17,17.9-.87-.19,4.56-17.57,7.97-20.57,1.17-1.03,2.85-2.22,5.1-2.87,5.11-1.49-9.89,30.15-3.83,12.44,1.83-5.34,4.96-12.77,6.99-13.98,2.92-1.74,11-6.49,14.89-7.48.55-.14,1.02-.21,1.38-.18,3.35.29-.38,6.1-.81,5.99-.34-.09,1.09-4.01,1.94-5.73.61-1.24,1.86-2.52,3.36-2.24,1.87.35-.9,6.26-1.37,5.96-.38-.24,1.48-4.41,2.47-6.16.87-1.54,3.96-2.35,4.05-.77.12,2.06-1.17,8.02-2.1,7.77-.84-.23,1.06-5.01,2.3-7.41,1.42-2.76,8.79-5.36,9.43-2.61.63,2.72-3.55,10.02-4.06,9.75-1.69-.89,9.12-17.98,11.71-11.73.8,1.94-1.23,7.23-1.93,6.73-.82-.59,2.26-6.15,3.02-6.76,2.28-1.85,3.74-.08,3.33,2.44-.47,2.85-2.37,6.93-3.41,6.82-1.49-.15.85-2.17,2.66-6.36,2.61-6.04,10.33-1.16,7.86,2.9-2.44,3.99-11.96,8.75-15.04,10.41-5.2,2.79-17.62,11.42-52.56,37.76,0,0-66.54,55.38-71.96,60.07,0,0,.31-.61-7.52,7.21-7.82,7.82-42.04,45.41-44.49,48.02"/><path class="cls-2" d="M292.87,170.14c1.11-.39,16.1-18.91,21.45-23.56,5.35-4.65,2.52-4.07,15.84-16.56,13.32-12.49,98.44-83.04,98.44-83.04,17.01-13.95,40.62-29.56,43.18-30.67,1.77-.77,7.11-4.37,10.55-6.4,4.53-2.68,3.75-.77,4.87,4.49.42,1.98.53,2.18-1.63,2.46-2.16.28-9.14,1.81-8.08.61.57-.64,3.29-1.01,5.71-.78,5.65.53,6.37,7.27-1.57,8.4-1.36.19-14.19.79-6.66-.34,1.97-.29,4.73-.52,6.81-.46,6.93.18-.44,4.68-2.43,8.4-.85,1.6-13.71,4.22-13.74,2.71-.02-1.05,6.33-1.8,10.06-1.87,6.04-.11-.71,3.93-3.72,7.44-.55.65-6.74,6-9.3,8.28-2.64,2.34-8.07.55-10.19-.36-3.93-1.68,8.66.31,7.89,2.53-.56,1.61-2.67,3.33-3.76,4.28-2.17,1.88-10.15.64-9.83-.61.3-1.16,10.58.21,7.84,2.89-2.73,2.68-12.27,11.49-12.27,11.49l-3.23,1.99c-1.96,1.2-14.97.86-14.31-.67.59-1.36,15.09.28,11.43,3.44-1.73,1.49-4.96,3.56-7.48,5.61-3.01,2.44-14.65,2.37-14.51,1.01.09-.91,16.74-1.71,10.95,2.67-1.83,1.38-4.66,2.9-6.68,4.07-1.05.61-1.88,1.13-2.24,1.48-1.26,1.25-9.25-.2-9.22-1.7.02-.96,10.46.38,5.68,4.42-3.35,2.82-11.33,7.93-13.21,9.08-2.27,1.39-12.61,2.08-12-.24.61-2.32,11.01,1.26,10.25,2.56-.76,1.3-21.58,17.25-24.67,19.37-3.09,2.12-12.79,3.81-12.6,1.95.15-1.48,12.04-3.15,8.78,1.53-1.52,2.18-4.89,5.43-6.58,7.05-2.96,2.83-14.21,2.1-6.26,1.04,2.77-.37,6.25-.49,4.33,1.46-1.66,1.7-4.96,4.97-4.96,4.97,0,0-1.58,1.96-3.03,3.68-2.45,2.91-13.23,3.46-13.09,2.1.15-1.49,11.84-.66,10.18,2.05-1.66,2.71-6.86,8.18-8.87,10.73-2.38,3-13.29-2.9-8.24-1.62,2.7.69,8.41,2.67,6.56,4.93l-2.13,1.95"/><line class="cls-3" x1=".33" y1="206.95" x2="286.48" y2="206.95"/><path class="cls-4" d="M362.09,134.99c4.29,1.52,7.98,4.19,11.49,7.02s6.73,5.52,10.29,8.05c7.64,5.43,15.75,10.35,23.87,15.02,8.05,4.63,16.43,8.21,25.63,9.79,9.04,1.55,18.28,1.48,27.4.87,5.29-.35,10.55-1.06,15.84-1.38,2.9-.17,5.8-.35,8.69-.54,9.92-.63,19.83-1.31,29.73-2.13,4.69-.39,9.38-.8,14.06-1.32,2.85-.32,5.8-.55,8.58-1.27.31-.08.61-.17.91-.3s.04-.56-.25-.43c-2.12.92-4.85.98-7.11,1.25-4.35.53-8.71.92-13.07,1.3-10.06.87-20.13,1.57-30.2,2.22-6.78.44-13.52.92-20.29,1.54-9.28.84-18.64,1.38-27.94.51s-18.47-3.52-26.93-7.91-16.15-9.3-23.87-14.38c-4-2.63-7.88-5.43-11.59-8.46-3.18-2.6-6.31-5.32-9.84-7.44-1.67-1-3.42-1.85-5.26-2.5-.3-.11-.43.37-.13.48h0Z"/><path class="cls-1" d="M296.76,143.09s-6.26,7.48-12.52,13.22c-6.26,5.74-9.15,15.65-10.14,16.35-.04.03-.09.07-.16.14-.15.13-.36.35-.63.63-2.98,3.12-12.66,14.38-10.08,13.97.73-.12,1.59-.66,2.48-1.41,2.42-2.05,4.99-5.65,5.42-6.27.04-.06.06-.09.06-.09"/><path class="cls-1" d="M287.37,198.76c-.65-.8-1.73-10.13-1.73-10.13"/><path class="cls-1" d="M336.22,206.04c-1.83,1.42-1.02,3.05-1.02,3.05-.81-1.07-7.86-2.73-9.28-4.19-3.37-3.47-3.12-4.14-3.53-5.36,0,0-.74-3.33-.2-6.1s.53-5.06.53-5.06"/><path class="cls-1" d="M351.48,192.73c.99.97,7.45,8.64,13.02,10.89,2.59,1.05,5.71,1.94,8.34,2.59,3.02.74,5.41,1.17,5.65,1.17.45,0,7.67.3,9.93.45,2.26.15,3.42,1.12,3.42,1.12,0,0-.71,1.44-5.22.99-4.51-.45-10.68-1.96-10.68-1.96"/><path class="cls-1" d="M372.84,206.21c3.39,2.83,1.13,1.62,5.19,5.38,4.06,3.76,12.33,6.02,14.89,6.17,2.56.15,4.21.6,8.42.15,4.21-.45,2.56-.9,8.42-.45s18.8.45,23.31.6,15.64-.15,20.3-.15,14.42.52,18.72-.19c4.29-.71,2.68-.05,2.68-.05"/><path class="cls-1" d="M378.66,213.69s-8.44-1.45-11.95-4.21c-3.52-2.76-12.68-8.79-14.19-10.55s-7.52-7.89-8.16-10.54"/><path class="cls-1" d="M273.93,172.8s.17.99-.49,2.39"/><path class="cls-1" d="M289.06,201.66s-1.57-4.18-1.87-2.46-.52,7.39,0,9.71c.52,2.31.72,3.15,1.07,3.37s1.36-1.02,1.34-1.71c0,0,.71-.16,3.01-.71s4.44-1.98,5.23-2.85,1.74-3.8,1.9-4.28,1.03-3.88,1.03-3.88c0,0-.08-3.17-.24-4.12s-.08-2.69.48-3.56,1.9-2.53,1.9-2.53l1.66-2.14"/><path class="cls-1" d="M289.58,207.04s.22,3.21-.07,3.88"/><path class="cls-1" d="M315.49,214.8s2.99,1.64,2.17,1.87-5.23-2.17-5.6-2.46-2.99-2.69-3.51-3.58c-.52-.9-.26-1.76-.26-1.76,0,0,1.75.79,2.5,1.68"/><path class="cls-1" d="M323.56,185.9c-.15,1.12-2.69,7.09-5.6,7.99s-3.14.82-6.42.6c-3.29-.22,2.34.48,2.34.48,0,0,.79-.03,1.54,1.31s.42.15,1.48,2.02,2.63,2.39,3.52,5.38c.39,1.3,1.57,4.68,1.19,6.5-.67,3.21-.75,3.73-2.39,4.7-1.64.97-2.24.9-2.24.9"/><path class="cls-1" d="M308.32,210.25s-2.91-2.09-4.85-4.85-2.71-4.52-2.7-6.55"/><path class="cls-1" d="M345.53,163.83s.43.12,1.24-.37,1.85-2.72,4.01-4.57,3.89-1.24,3.89-1.24c0,0,2.04.19,1.61,1.98-.43,1.79-5.56,3.4-6.98,3.89-.59.21-1.96.42-3.7.59-2.45.24-5.63.38-8.41.27,0,0-15.08-1.24-19.3-.56s-10.27,1.94-11.18,2.17-9.24,2.85-9.24,2.85l-4.6,1.29-6.35,1.79s-5.93,1.14-5.25,3.88c.68,2.74,4.79,4.22,7.76,4.45,2.97.23,8.78-1.25,9.92-2.17s1.71-2.05,1.71-3.31-.46-2.28-.46-2.28c0,0-.46-1.48-2.28-1.94s-4.45.23-4.45.23l-5.77,1.53s-4.69,1.09-5.53,2.96c-1.18,2.61,2.48,4.14,2.48,4.14,0,0-2.86,3.33-8.26,6.64-5.39,3.31-10.71-.07-10.71-.07"/><path class="cls-1" d="M284.7,179.48c.59.39,2.21,3.29,5.17,4.4,0,0,2.2,2.34,7.81,2.69,5.61.36,15.16-.66,15.16-.66,0,0,3.86-1.63,6.51-1.02,1.35.31,3.12.73,4.67,1.06s2.76.56,3.26.56c1.02,0,3.86-.2,10.37.81,2.27.35,3.92.59,5.32.82s2.53.48,3.78.86c1.08.33,2.24.76,3.71,1.37,2.44,1.01,3.81,1.57,4.72,1.9s1.38.43,1.99.54c1.22.2,4.16.42,4.16.42,0,0-8.22-.83-10.86-1.64-2.64-.81-6.1-3.21-6.1-3.21,0,0,.2,2.6-2.85,2.6s-5.75-1.04-5.75-1.04c0,0,3.72,1.24,3.72,3.88s-1.49,3.73-2.78,3.29-5.08-1.24-5.08-1.24c0,0-1.09-2.23,4.7.1,5.8,2.33,8.44,3.34,10.07,7.61,1.63,4.27,1.52,7.36,1.52,7.36,1.1,1.13-8.04-3.85-9.85-2.79-2.9,1.69-1.79,1.81-1.79,1.81,0,0,2.2,1.76,6.87,1.76"/><polyline class="cls-2" points="289.87 183.88 283.61 190.74 270.67 205.3"/><line class="cls-2" x1="288.35" y1="171.37" x2="289.15" y2="168.84"/><line class="cls-3" x1="298.51" y1="206.42" x2="303.96" y2="206.42"/><line class="cls-3" x1="321.41" y1="206.3" x2="327.72" y2="206.3"/><line class="cls-3" x1="347.38" y1="206.3" x2="362.16" y2="206.3"/></g></svg>